<mxfile host="app.diagrams.net" modified="2023-10-10T15:14:37.930Z" agent="Mozilla/5.0 (X11; Linux x86_64; rv:109.0) Gecko/20100101 Firefox/118.0" etag="gR5JwGMpXbVXhaMNDzUf" version="21.7.5" type="device">
  <diagram id="R2lEEEUBdFMjLlhIrx00" name="Page-1">
    <mxGraphModel dx="3134" dy="1850" grid="1" gridSize="10" guides="1" tooltips="1" connect="1" arrows="1" fold="1" page="1" pageScale="1" pageWidth="850" pageHeight="1100" math="0" shadow="0" extFonts="Permanent Marker^https://fonts.googleapis.com/css?family=Permanent+Marker">
      <root>
        <mxCell id="0" />
        <mxCell id="1" parent="0" />
        <mxCell id="spF546G6xqbUf-VjN9VN-4" value="Cantidad Victorias Carrera Vehículo" style="ellipse;whiteSpace=wrap;html=1;align=center;" parent="1" vertex="1">
          <mxGeometry x="542.34" y="190" width="106.36" height="65" as="geometry" />
        </mxCell>
        <mxCell id="spF546G6xqbUf-VjN9VN-5" value="Equipos&lt;br&gt;&amp;nbsp;(T.D)" style="whiteSpace=wrap;html=1;align=center;" parent="1" vertex="1">
          <mxGeometry x="415.98" y="579.0799999999999" width="130.75" height="53.75" as="geometry" />
        </mxCell>
        <mxCell id="QzIXMJOMqJ5zSQku9dIi-1" value="Pilotos (T.D)" style="whiteSpace=wrap;html=1;align=center;" parent="1" vertex="1">
          <mxGeometry x="415.98000000000013" y="911.9100000000001" width="126" height="48.13" as="geometry" />
        </mxCell>
        <mxCell id="QzIXMJOMqJ5zSQku9dIi-2" value="Gran Premio (T.H)" style="whiteSpace=wrap;html=1;align=center;" parent="1" vertex="1">
          <mxGeometry x="-177.4" y="574.65" width="140" height="60" as="geometry" />
        </mxCell>
        <mxCell id="QzIXMJOMqJ5zSQku9dIi-8" value="ID Vehiculo" style="ellipse;whiteSpace=wrap;html=1;align=center;" parent="1" vertex="1">
          <mxGeometry x="315.51" y="361.7" width="66.36" height="38.4" as="geometry" />
        </mxCell>
        <mxCell id="QzIXMJOMqJ5zSQku9dIi-11" value="Nombre Piloto" style="ellipse;whiteSpace=wrap;html=1;align=center;" parent="1" vertex="1">
          <mxGeometry x="238.1" y="988.1999999999999" width="96.31" height="28.38" as="geometry" />
        </mxCell>
        <mxCell id="QzIXMJOMqJ5zSQku9dIi-12" value="&lt;div&gt;ID Piloto&lt;/div&gt;" style="ellipse;whiteSpace=wrap;html=1;align=center;" parent="1" vertex="1">
          <mxGeometry x="330.82999999999987" y="1022.0800000000002" width="64.97" height="26.04" as="geometry" />
        </mxCell>
        <mxCell id="QzIXMJOMqJ5zSQku9dIi-16" value="&lt;div&gt;ID Gran Premio&lt;br&gt;&lt;/div&gt;" style="ellipse;whiteSpace=wrap;html=1;align=center;" parent="1" vertex="1">
          <mxGeometry x="30" y="535.47" width="68.86" height="39.18" as="geometry" />
        </mxCell>
        <mxCell id="QzIXMJOMqJ5zSQku9dIi-32" value="" style="endArrow=none;html=1;rounded=0;dashed=1;dashPattern=1 2;exitX=1;exitY=0;exitDx=0;exitDy=0;entryX=0.5;entryY=1;entryDx=0;entryDy=0;" parent="1" source="-eVVYZuYslbt9J-JJ0XE-3" target="Y4V3PFolOMbgDIU-VeXU-20" edge="1">
          <mxGeometry relative="1" as="geometry">
            <mxPoint x="-277.08000000000015" y="491.46000000000004" as="sourcePoint" />
            <mxPoint x="-144.88" y="476.46000000000004" as="targetPoint" />
          </mxGeometry>
        </mxCell>
        <mxCell id="QzIXMJOMqJ5zSQku9dIi-39" value="" style="endArrow=none;html=1;rounded=0;entryX=0.25;entryY=1;entryDx=0;entryDy=0;exitX=1;exitY=0;exitDx=0;exitDy=0;" parent="1" source="QzIXMJOMqJ5zSQku9dIi-12" target="QzIXMJOMqJ5zSQku9dIi-1" edge="1">
          <mxGeometry relative="1" as="geometry">
            <mxPoint x="251.97999999999993" y="971.9100000000001" as="sourcePoint" />
            <mxPoint x="411.98000000000013" y="971.9100000000001" as="targetPoint" />
          </mxGeometry>
        </mxCell>
        <mxCell id="QzIXMJOMqJ5zSQku9dIi-41" value="" style="endArrow=none;html=1;rounded=0;entryX=1;entryY=0.5;entryDx=0;entryDy=0;exitX=0;exitY=0.75;exitDx=0;exitDy=0;" parent="1" source="QzIXMJOMqJ5zSQku9dIi-1" target="QzIXMJOMqJ5zSQku9dIi-11" edge="1">
          <mxGeometry relative="1" as="geometry">
            <mxPoint x="409.6" y="953.53" as="sourcePoint" />
            <mxPoint x="355.98000000000013" y="881.9100000000001" as="targetPoint" />
          </mxGeometry>
        </mxCell>
        <mxCell id="QzIXMJOMqJ5zSQku9dIi-53" value="Compiten" style="shape=rhombus;perimeter=rhombusPerimeter;whiteSpace=wrap;html=1;align=center;" parent="1" vertex="1">
          <mxGeometry x="73.13999999999999" y="574.82" width="120" height="60" as="geometry" />
        </mxCell>
        <mxCell id="QzIXMJOMqJ5zSQku9dIi-58" value="" style="endArrow=none;html=1;rounded=0;entryX=0.5;entryY=1;entryDx=0;entryDy=0;exitX=0.5;exitY=0;exitDx=0;exitDy=0;" parent="1" source="5QmATJn6TRXE4mpTiNKF-107" target="hz-Ye3yR5dOZ-r6eBfFQ-2" edge="1">
          <mxGeometry relative="1" as="geometry">
            <mxPoint x="464.59000000000003" y="390.8500000000001" as="sourcePoint" />
            <mxPoint x="463.6650000000003" y="287.1000000000001" as="targetPoint" />
          </mxGeometry>
        </mxCell>
        <mxCell id="QzIXMJOMqJ5zSQku9dIi-59" value="N" style="resizable=0;html=1;align=right;verticalAlign=bottom;" parent="QzIXMJOMqJ5zSQku9dIi-58" connectable="0" vertex="1">
          <mxGeometry x="1" relative="1" as="geometry">
            <mxPoint x="19" y="18" as="offset" />
          </mxGeometry>
        </mxCell>
        <mxCell id="QzIXMJOMqJ5zSQku9dIi-60" value="" style="endArrow=none;html=1;rounded=0;entryX=1;entryY=0.5;entryDx=0;entryDy=0;exitX=0;exitY=0.5;exitDx=0;exitDy=0;" parent="1" source="QzIXMJOMqJ5zSQku9dIi-53" target="QzIXMJOMqJ5zSQku9dIi-2" edge="1">
          <mxGeometry relative="1" as="geometry">
            <mxPoint x="4.059999999999974" y="604.82" as="sourcePoint" />
            <mxPoint x="509.06000000000006" y="709.82" as="targetPoint" />
          </mxGeometry>
        </mxCell>
        <mxCell id="QzIXMJOMqJ5zSQku9dIi-61" value="1" style="resizable=0;html=1;align=right;verticalAlign=bottom;" parent="QzIXMJOMqJ5zSQku9dIi-60" connectable="0" vertex="1">
          <mxGeometry x="1" relative="1" as="geometry">
            <mxPoint x="118" y="-7" as="offset" />
          </mxGeometry>
        </mxCell>
        <mxCell id="QzIXMJOMqJ5zSQku9dIi-64" value="" style="endArrow=none;html=1;rounded=0;entryX=0.75;entryY=1;entryDx=0;entryDy=0;exitX=0.5;exitY=0;exitDx=0;exitDy=0;" parent="1" source="Y4V3PFolOMbgDIU-VeXU-26" target="-eVVYZuYslbt9J-JJ0XE-2" edge="1">
          <mxGeometry relative="1" as="geometry">
            <mxPoint x="259.89" y="612.32" as="sourcePoint" />
            <mxPoint x="-210.11000000000004" y="442.32" as="targetPoint" />
          </mxGeometry>
        </mxCell>
        <mxCell id="QzIXMJOMqJ5zSQku9dIi-68" value="" style="endArrow=none;html=1;rounded=0;entryX=0;entryY=1;entryDx=0;entryDy=0;exitX=1;exitY=0.25;exitDx=0;exitDy=0;" parent="1" source="QzIXMJOMqJ5zSQku9dIi-2" target="QzIXMJOMqJ5zSQku9dIi-16" edge="1">
          <mxGeometry relative="1" as="geometry">
            <mxPoint x="-20.400000000000006" y="590" as="sourcePoint" />
            <mxPoint x="479.01999999999987" y="724.65" as="targetPoint" />
          </mxGeometry>
        </mxCell>
        <mxCell id="_653EDvxaTuG0yJy9ZOz-2" value="" style="resizable=0;html=1;align=right;verticalAlign=bottom;" parent="1" connectable="0" vertex="1">
          <mxGeometry x="55.34" y="604.82" as="geometry" />
        </mxCell>
        <mxCell id="_653EDvxaTuG0yJy9ZOz-9" value="Sprint: &lt;br&gt;&lt;div&gt;Consiste en una carrera de 100 kilómetros aproximadamente.&lt;/div&gt;&lt;div&gt;Se realiza los sábados obligando a los pilotos a clasificar para ella el viernes.&lt;/div&gt;&lt;div&gt;El Sprint dura alrededor de 30 minutos (sin paso por boxes) que configurará la parrilla de salida del Gran Premio.&lt;/div&gt;" style="shape=note;size=20;whiteSpace=wrap;html=1;" parent="1" vertex="1">
          <mxGeometry x="-472.5" y="-199.89999999999998" width="164.83" height="187.24" as="geometry" />
        </mxCell>
        <mxCell id="_653EDvxaTuG0yJy9ZOz-26" value="Puntaje por Carrera, por Sprint y Vuelta rápida en carrera.&lt;br&gt;La Clasificación NO SUMA PUNTOS." style="shape=note;size=20;whiteSpace=wrap;html=1;" parent="1" vertex="1">
          <mxGeometry x="-647.4100000000001" y="-39.89999999999998" width="160" height="140" as="geometry" />
        </mxCell>
        <mxCell id="Rlq5yOd7WlWmStAXrB9J-1" value="Puntos por Carrera.&lt;br&gt;Posición | Puntos |&lt;br&gt;&lt;br&gt;1º | 25&lt;br&gt;&lt;br&gt;2º | 18&lt;br&gt;&lt;br&gt;3º | 15&lt;br&gt;&lt;br&gt;4º | 12&lt;br&gt;&lt;br&gt;5º | 10&lt;br&gt;&lt;br&gt;6º | 8&lt;br&gt;&lt;br&gt;7º | 6&lt;br&gt;&lt;br&gt;8º | 4&lt;br&gt;&lt;br&gt;9º | 2&lt;br&gt;&lt;br&gt;10º | 1" style="shape=note;size=20;whiteSpace=wrap;html=1;" parent="1" vertex="1">
          <mxGeometry x="-810.1699999999998" y="-104.39999999999998" width="147" height="340" as="geometry" />
        </mxCell>
        <mxCell id="Rlq5yOd7WlWmStAXrB9J-2" value="&lt;div&gt;Puntos por Sprint&lt;/div&gt;&lt;div&gt;Posición | Puntos&lt;/div&gt;&lt;div&gt;&lt;br&gt;&lt;/div&gt;1º | 8&lt;br&gt;&lt;br&gt;2º | 7&lt;br&gt;&lt;br&gt;3º | 6&lt;br&gt;&lt;br&gt;4º | 5&lt;br&gt;&lt;br&gt;5º | 4&lt;br&gt;&lt;br&gt;6º | 3&lt;br&gt;&lt;br&gt;7º | 2&lt;br&gt;&lt;br&gt;8º | 1" style="shape=note;size=20;whiteSpace=wrap;html=1;" parent="1" vertex="1">
          <mxGeometry x="-472.5" y="-3.909999999999979" width="164.83" height="270" as="geometry" />
        </mxCell>
        <mxCell id="G-mce3Gh84C6tqfq_c7Y-1" value="&lt;div&gt;&lt;span class=&quot;xl-qi-tp__output-text&quot; id=&quot;xl-qi-tp-output-text&quot;&gt;Los puntos de ambos pilotos en un equipo se cuentan juntos.&lt;/span&gt;&lt;/div&gt;&lt;div&gt;&lt;span class=&quot;xl-qi-tp__output-text&quot; id=&quot;xl-qi-tp-output-text&quot;&gt;Los puntos que haga un equipo va a ser la suma de los puntos de los 2 pilotos&lt;br&gt;&lt;/span&gt;&lt;/div&gt;" style="shape=note;size=20;whiteSpace=wrap;html=1;" parent="1" vertex="1">
          <mxGeometry x="-647.4100000000001" y="-199.89999999999998" width="160" height="150" as="geometry" />
        </mxCell>
        <mxCell id="G-mce3Gh84C6tqfq_c7Y-38" value="" style="resizable=0;html=1;align=right;verticalAlign=bottom;" parent="1" connectable="0" vertex="1">
          <mxGeometry x="602.3100000000001" y="719.8199999999999" as="geometry">
            <mxPoint x="17" y="18" as="offset" />
          </mxGeometry>
        </mxCell>
        <mxCell id="-eVVYZuYslbt9J-JJ0XE-2" value="&amp;nbsp;Clasificación (T.H)" style="whiteSpace=wrap;html=1;align=center;" parent="1" vertex="1">
          <mxGeometry x="-658.9" y="377.87" width="100" height="40" as="geometry" />
        </mxCell>
        <mxCell id="-eVVYZuYslbt9J-JJ0XE-3" value="&amp;nbsp;Sprint (Condicional) (T.H)" style="whiteSpace=wrap;html=1;align=center;" parent="1" vertex="1">
          <mxGeometry x="-610.7500000000002" y="868.2700000000002" width="108.75" height="40" as="geometry" />
        </mxCell>
        <mxCell id="-eVVYZuYslbt9J-JJ0XE-37" value="" style="resizable=0;html=1;align=right;verticalAlign=bottom;" parent="1" connectable="0" vertex="1">
          <mxGeometry x="472.31848480983524" y="487.321515190165" as="geometry">
            <mxPoint x="-72" y="-33" as="offset" />
          </mxGeometry>
        </mxCell>
        <mxCell id="-eVVYZuYslbt9J-JJ0XE-56" value="Posición Sprint" style="ellipse;whiteSpace=wrap;html=1;align=center;" parent="1" vertex="1">
          <mxGeometry x="-697.3100000000004" y="824.3000000000002" width="52.5" height="45" as="geometry" />
        </mxCell>
        <mxCell id="-eVVYZuYslbt9J-JJ0XE-60" value="" style="endArrow=none;html=1;rounded=0;entryX=1;entryY=1;entryDx=0;entryDy=0;exitX=0;exitY=0.25;exitDx=0;exitDy=0;" parent="1" source="-eVVYZuYslbt9J-JJ0XE-3" target="-eVVYZuYslbt9J-JJ0XE-56" edge="1">
          <mxGeometry relative="1" as="geometry">
            <mxPoint x="-291.46999999999997" y="1145.77" as="sourcePoint" />
            <mxPoint x="-131.47000000000003" y="1145.77" as="targetPoint" />
          </mxGeometry>
        </mxCell>
        <mxCell id="-eVVYZuYslbt9J-JJ0XE-64" value="Posición de Clasificación" style="ellipse;whiteSpace=wrap;html=1;align=center;" parent="1" vertex="1">
          <mxGeometry x="-658.9" y="317.87" width="100" height="40" as="geometry" />
        </mxCell>
        <mxCell id="-eVVYZuYslbt9J-JJ0XE-66" value="&lt;div&gt;ID Gran Premio&lt;br&gt;&lt;/div&gt;" style="ellipse;whiteSpace=wrap;html=1;align=center;" parent="1" vertex="1">
          <mxGeometry x="-743.4100000000002" y="317.87" width="70" height="40" as="geometry" />
        </mxCell>
        <mxCell id="-eVVYZuYslbt9J-JJ0XE-67" value="" style="endArrow=none;html=1;rounded=0;entryX=0.5;entryY=1;entryDx=0;entryDy=0;exitX=0.5;exitY=0;exitDx=0;exitDy=0;" parent="1" source="-eVVYZuYslbt9J-JJ0XE-2" target="-eVVYZuYslbt9J-JJ0XE-64" edge="1">
          <mxGeometry relative="1" as="geometry">
            <mxPoint x="-526.5800000000002" y="602.8700000000001" as="sourcePoint" />
            <mxPoint x="-366.58000000000004" y="602.8700000000001" as="targetPoint" />
          </mxGeometry>
        </mxCell>
        <mxCell id="-eVVYZuYslbt9J-JJ0XE-69" value="" style="endArrow=none;html=1;rounded=0;entryX=1;entryY=1;entryDx=0;entryDy=0;exitX=0.212;exitY=-0.011;exitDx=0;exitDy=0;exitPerimeter=0;" parent="1" source="-eVVYZuYslbt9J-JJ0XE-2" target="-eVVYZuYslbt9J-JJ0XE-66" edge="1">
          <mxGeometry relative="1" as="geometry">
            <mxPoint x="-526.5800000000002" y="602.8700000000001" as="sourcePoint" />
            <mxPoint x="-366.58000000000004" y="602.8700000000001" as="targetPoint" />
          </mxGeometry>
        </mxCell>
        <mxCell id="-eVVYZuYslbt9J-JJ0XE-100" value="ID Circuito" style="ellipse;whiteSpace=wrap;html=1;align=center;" parent="1" vertex="1">
          <mxGeometry x="-342.53999999999996" y="368.35" width="50" height="32.02" as="geometry" />
        </mxCell>
        <mxCell id="-eVVYZuYslbt9J-JJ0XE-106" value="" style="endArrow=none;html=1;rounded=0;entryX=1;entryY=0.5;entryDx=0;entryDy=0;exitX=0;exitY=0.5;exitDx=0;exitDy=0;" parent="1" source="ipYZzUYbfrLDNqTl1qCh-7" target="-eVVYZuYslbt9J-JJ0XE-100" edge="1">
          <mxGeometry relative="1" as="geometry">
            <mxPoint x="-345.06000000000006" y="529.91" as="sourcePoint" />
            <mxPoint x="-185.06000000000003" y="529.91" as="targetPoint" />
          </mxGeometry>
        </mxCell>
        <mxCell id="5Ob6wOQbjX10rEnU1mkN-1" value="&lt;div&gt;Puntos&lt;br&gt;&lt;/div&gt;Sprint" style="ellipse;whiteSpace=wrap;html=1;align=center;" parent="1" vertex="1">
          <mxGeometry x="-722.0600000000002" y="915.0400000000002" width="65" height="45" as="geometry" />
        </mxCell>
        <mxCell id="5Ob6wOQbjX10rEnU1mkN-2" value="" style="endArrow=none;html=1;rounded=0;entryX=1;entryY=0.5;entryDx=0;entryDy=0;exitX=0;exitY=0.75;exitDx=0;exitDy=0;" parent="1" source="-eVVYZuYslbt9J-JJ0XE-3" target="5Ob6wOQbjX10rEnU1mkN-1" edge="1">
          <mxGeometry relative="1" as="geometry">
            <mxPoint x="-178.97000000000003" y="1100.7700000000002" as="sourcePoint" />
            <mxPoint x="-18.970000000000056" y="1100.7700000000002" as="targetPoint" />
          </mxGeometry>
        </mxCell>
        <mxCell id="5Ob6wOQbjX10rEnU1mkN-18" value="Vueltas Completadas Sprint" style="ellipse;whiteSpace=wrap;html=1;align=center;" parent="1" vertex="1">
          <mxGeometry x="-795.2200000000001" y="863.0400000000001" width="132.05" height="50.47" as="geometry" />
        </mxCell>
        <mxCell id="5Ob6wOQbjX10rEnU1mkN-20" value="" style="endArrow=none;html=1;rounded=0;entryX=1;entryY=0.5;entryDx=0;entryDy=0;exitX=0;exitY=0.5;exitDx=0;exitDy=0;" parent="1" source="-eVVYZuYslbt9J-JJ0XE-3" target="5Ob6wOQbjX10rEnU1mkN-18" edge="1">
          <mxGeometry relative="1" as="geometry">
            <mxPoint x="-178.97000000000003" y="1100.7700000000002" as="sourcePoint" />
            <mxPoint x="-18.970000000000056" y="1100.7700000000002" as="targetPoint" />
          </mxGeometry>
        </mxCell>
        <mxCell id="5Ob6wOQbjX10rEnU1mkN-44" value="&lt;div&gt;Vuelta rápida: 1 punto (siempre y cuando la vuelta rápida sea de un piloto que acabe en el top 10 de la carrera)&lt;/div&gt;&lt;div&gt;El punto se suma al puntaje de carrera, ejemplo, si el piloto que terminó en 1ra posición también hizo la vuelta rápida se llevaría 26 puntos&lt;br&gt;&lt;/div&gt;" style="shape=note;size=20;whiteSpace=wrap;html=1;" parent="1" vertex="1">
          <mxGeometry x="-647.4100000000001" y="110.10000000000002" width="160" height="180" as="geometry" />
        </mxCell>
        <mxCell id="5Ob6wOQbjX10rEnU1mkN-108" value="1" style="resizable=0;html=1;align=right;verticalAlign=bottom;" parent="1" connectable="0" vertex="1">
          <mxGeometry x="-186.82999999999996" y="621.67" as="geometry" />
        </mxCell>
        <mxCell id="Tzdz77N2tQg-lTi0Wvo8-5" value="Cantidad Campeonatos Piloto" style="ellipse;whiteSpace=wrap;html=1;align=center;" parent="1" vertex="1">
          <mxGeometry x="532.47" y="1021.35" width="83.75" height="51.46" as="geometry" />
        </mxCell>
        <mxCell id="Tzdz77N2tQg-lTi0Wvo8-6" value="" style="endArrow=none;html=1;rounded=0;entryX=0;entryY=0;entryDx=0;entryDy=0;exitX=0.75;exitY=1;exitDx=0;exitDy=0;" parent="1" source="QzIXMJOMqJ5zSQku9dIi-1" target="Tzdz77N2tQg-lTi0Wvo8-5" edge="1">
          <mxGeometry relative="1" as="geometry">
            <mxPoint x="512.1000000000001" y="960.2" as="sourcePoint" />
            <mxPoint x="375.98000000000013" y="871.9100000000001" as="targetPoint" />
          </mxGeometry>
        </mxCell>
        <mxCell id="Tzdz77N2tQg-lTi0Wvo8-11" value="&lt;div&gt;Cantidad Poles Position Piloto&lt;/div&gt;" style="ellipse;whiteSpace=wrap;html=1;align=center;" parent="1" vertex="1">
          <mxGeometry x="627.1100000000002" y="1022.08" width="100" height="50" as="geometry" />
        </mxCell>
        <mxCell id="Tzdz77N2tQg-lTi0Wvo8-12" value="" style="endArrow=none;html=1;rounded=0;entryX=0;entryY=0;entryDx=0;entryDy=0;exitX=1;exitY=1;exitDx=0;exitDy=0;" parent="1" source="QzIXMJOMqJ5zSQku9dIi-1" target="Tzdz77N2tQg-lTi0Wvo8-11" edge="1">
          <mxGeometry relative="1" as="geometry">
            <mxPoint x="572.1000000000001" y="965.2" as="sourcePoint" />
            <mxPoint x="375.98000000000013" y="931.9100000000001" as="targetPoint" />
          </mxGeometry>
        </mxCell>
        <mxCell id="Tzdz77N2tQg-lTi0Wvo8-14" value="Cantidad Vueltas Rápidas Carrera Piloto" style="ellipse;whiteSpace=wrap;html=1;align=center;" parent="1" vertex="1">
          <mxGeometry x="679.6" y="923.53" width="130" height="50" as="geometry" />
        </mxCell>
        <mxCell id="Tzdz77N2tQg-lTi0Wvo8-15" value="" style="endArrow=none;html=1;rounded=0;entryX=0;entryY=0.5;entryDx=0;entryDy=0;exitX=1;exitY=0.5;exitDx=0;exitDy=0;" parent="1" source="QzIXMJOMqJ5zSQku9dIi-1" target="Tzdz77N2tQg-lTi0Wvo8-14" edge="1">
          <mxGeometry relative="1" as="geometry">
            <mxPoint x="215.97999999999993" y="931.9100000000001" as="sourcePoint" />
            <mxPoint x="375.98000000000013" y="931.9100000000001" as="targetPoint" />
          </mxGeometry>
        </mxCell>
        <mxCell id="Tzdz77N2tQg-lTi0Wvo8-22" value="&lt;div&gt;Cantidad Victorias Sprint Vehículo&lt;/div&gt;" style="ellipse;whiteSpace=wrap;html=1;align=center;" parent="1" vertex="1">
          <mxGeometry x="330.8299999999999" y="190" width="96.98" height="65" as="geometry" />
        </mxCell>
        <mxCell id="Tzdz77N2tQg-lTi0Wvo8-40" value="Cantidad Campeonatos Equipo" style="ellipse;whiteSpace=wrap;html=1;align=center;" parent="1" vertex="1">
          <mxGeometry x="268.97" y="732.1500000000001" width="96.87" height="51.43" as="geometry" />
        </mxCell>
        <mxCell id="Tzdz77N2tQg-lTi0Wvo8-43" value="Cantidad Victorias Carrera Equipo" style="ellipse;whiteSpace=wrap;html=1;align=center;" parent="1" vertex="1">
          <mxGeometry x="193.14000000000001" y="621.6700000000001" width="119.37" height="51.9" as="geometry" />
        </mxCell>
        <mxCell id="Tzdz77N2tQg-lTi0Wvo8-46" value="&lt;div&gt;Cantidad Poles Position Equipo&lt;/div&gt;" style="ellipse;whiteSpace=wrap;html=1;align=center;" parent="1" vertex="1">
          <mxGeometry x="616.2200000000001" y="495.18" width="112.07" height="44.82" as="geometry" />
        </mxCell>
        <mxCell id="Tzdz77N2tQg-lTi0Wvo8-49" value="Cantidad Vueltas Rápidas Carrera Equipo" style="ellipse;whiteSpace=wrap;html=1;align=center;" parent="1" vertex="1">
          <mxGeometry x="579.6" y="540" width="170" height="50" as="geometry" />
        </mxCell>
        <mxCell id="Tzdz77N2tQg-lTi0Wvo8-53" value="Cantidad Podios Carrera Piloto" style="ellipse;whiteSpace=wrap;html=1;align=center;" parent="1" vertex="1">
          <mxGeometry x="280" y="843.98" width="103.7" height="53.52" as="geometry" />
        </mxCell>
        <mxCell id="Tzdz77N2tQg-lTi0Wvo8-56" value="Cantidad Podios Carrera Equipo" style="ellipse;whiteSpace=wrap;html=1;align=center;" parent="1" vertex="1">
          <mxGeometry x="199.6" y="517.3199999999999" width="106.46" height="60" as="geometry" />
        </mxCell>
        <mxCell id="Tzdz77N2tQg-lTi0Wvo8-85" value="ID Gran Premio" style="ellipse;whiteSpace=wrap;html=1;align=center;" parent="1" vertex="1">
          <mxGeometry x="-433.54" y="879.03" width="63.54" height="40.97" as="geometry" />
        </mxCell>
        <mxCell id="oWHddvDKb02ZmPcFTsKN-2" value="" style="endArrow=none;html=1;rounded=0;entryX=0.5;entryY=0;entryDx=0;entryDy=0;exitX=0.5;exitY=1;exitDx=0;exitDy=0;" parent="1" source="QzIXMJOMqJ5zSQku9dIi-1" target="5QmATJn6TRXE4mpTiNKF-2" edge="1">
          <mxGeometry relative="1" as="geometry">
            <mxPoint x="445.98000000000013" y="961.9100000000001" as="sourcePoint" />
            <mxPoint x="395.23000000000025" y="1031.91" as="targetPoint" />
            <Array as="points" />
          </mxGeometry>
        </mxCell>
        <mxCell id="hz-Ye3yR5dOZ-r6eBfFQ-2" value="Vehículos" style="whiteSpace=wrap;html=1;align=center;flipH=1;" parent="1" vertex="1">
          <mxGeometry x="430.8899999999999" y="303.85" width="100" height="40" as="geometry" />
        </mxCell>
        <mxCell id="80DMmqVcCEvGscuTIsn9-148" value="Director Equipo" style="ellipse;whiteSpace=wrap;html=1;align=center;" parent="1" vertex="1">
          <mxGeometry x="627.11" y="597.3199999999999" width="100" height="40" as="geometry" />
        </mxCell>
        <mxCell id="80DMmqVcCEvGscuTIsn9-153" value="" style="endArrow=none;html=1;rounded=0;entryX=1;entryY=0.5;entryDx=0;entryDy=0;exitX=0;exitY=0.5;exitDx=0;exitDy=0;" parent="1" source="80DMmqVcCEvGscuTIsn9-148" target="spF546G6xqbUf-VjN9VN-5" edge="1">
          <mxGeometry relative="1" as="geometry">
            <mxPoint x="170.59000000000006" y="842.8199999999999" as="sourcePoint" />
            <mxPoint x="834.3799999999998" y="607.3199999999997" as="targetPoint" />
          </mxGeometry>
        </mxCell>
        <mxCell id="irIm4nyxzGXZBMSdgOWR-5" value="Nombre Equipo" style="ellipse;whiteSpace=wrap;html=1;align=center;" parent="1" vertex="1">
          <mxGeometry x="238.1" y="473.6199999999999" width="100" height="40" as="geometry" />
        </mxCell>
        <mxCell id="irIm4nyxzGXZBMSdgOWR-6" value="" style="endArrow=none;html=1;rounded=0;entryX=1;entryY=1;entryDx=0;entryDy=0;exitX=0;exitY=0.25;exitDx=0;exitDy=0;" parent="1" source="spF546G6xqbUf-VjN9VN-5" target="irIm4nyxzGXZBMSdgOWR-5" edge="1">
          <mxGeometry relative="1" as="geometry">
            <mxPoint x="416.65" y="572.3199999999999" as="sourcePoint" />
            <mxPoint x="642.3100000000001" y="669.8199999999999" as="targetPoint" />
          </mxGeometry>
        </mxCell>
        <mxCell id="irIm4nyxzGXZBMSdgOWR-8" value="ID Equipo" style="ellipse;whiteSpace=wrap;html=1;align=center;" parent="1" vertex="1">
          <mxGeometry x="378.5100000000001" y="699.65" width="77.16" height="37.5" as="geometry" />
        </mxCell>
        <mxCell id="irIm4nyxzGXZBMSdgOWR-9" value="" style="endArrow=none;html=1;rounded=0;entryX=0.5;entryY=0;entryDx=0;entryDy=0;exitX=0.25;exitY=1;exitDx=0;exitDy=0;" parent="1" source="spF546G6xqbUf-VjN9VN-5" target="irIm4nyxzGXZBMSdgOWR-8" edge="1">
          <mxGeometry relative="1" as="geometry">
            <mxPoint x="449.6" y="630" as="sourcePoint" />
            <mxPoint x="642.3100000000001" y="669.8199999999999" as="targetPoint" />
          </mxGeometry>
        </mxCell>
        <mxCell id="irIm4nyxzGXZBMSdgOWR-14" style="edgeStyle=orthogonalEdgeStyle;rounded=0;orthogonalLoop=1;jettySize=auto;html=1;exitX=0.5;exitY=1;exitDx=0;exitDy=0;" parent="1" edge="1">
          <mxGeometry relative="1" as="geometry">
            <mxPoint x="-481.85000000000014" y="395.37" as="sourcePoint" />
            <mxPoint x="-481.85000000000014" y="395.37" as="targetPoint" />
          </mxGeometry>
        </mxCell>
        <mxCell id="5Y04EKecw3Fli7BW3O9q-1" value="&lt;div&gt;País Circuito&lt;br&gt;&lt;/div&gt;" style="ellipse;whiteSpace=wrap;html=1;align=center;" parent="1" vertex="1">
          <mxGeometry x="-195.18" y="301.77" width="54.78" height="41.03" as="geometry" />
        </mxCell>
        <mxCell id="5Y04EKecw3Fli7BW3O9q-5" value="Fecha de inicio de GP" style="ellipse;whiteSpace=wrap;html=1;align=center;" parent="1" vertex="1">
          <mxGeometry x="-87.14000000000006" y="673.5699999999999" width="80" height="40" as="geometry" />
        </mxCell>
        <mxCell id="5Y04EKecw3Fli7BW3O9q-6" value="Fecha de final de GP" style="ellipse;whiteSpace=wrap;html=1;align=center;" parent="1" vertex="1">
          <mxGeometry x="-143.93" y="705.4399999999999" width="73.07" height="45.51" as="geometry" />
        </mxCell>
        <mxCell id="5Y04EKecw3Fli7BW3O9q-7" value="" style="endArrow=none;html=1;rounded=0;entryX=0.5;entryY=0;entryDx=0;entryDy=0;exitX=0.75;exitY=1;exitDx=0;exitDy=0;" parent="1" source="QzIXMJOMqJ5zSQku9dIi-2" target="5Y04EKecw3Fli7BW3O9q-5" edge="1">
          <mxGeometry relative="1" as="geometry">
            <mxPoint x="-170.48" y="697.15" as="sourcePoint" />
            <mxPoint x="279.52" y="767.1500000000001" as="targetPoint" />
          </mxGeometry>
        </mxCell>
        <mxCell id="5Y04EKecw3Fli7BW3O9q-9" value="" style="endArrow=none;html=1;rounded=0;exitX=0.5;exitY=1;exitDx=0;exitDy=0;entryX=0.5;entryY=0;entryDx=0;entryDy=0;" parent="1" source="QzIXMJOMqJ5zSQku9dIi-2" target="5Y04EKecw3Fli7BW3O9q-6" edge="1">
          <mxGeometry relative="1" as="geometry">
            <mxPoint x="119.51999999999995" y="767.1500000000001" as="sourcePoint" />
            <mxPoint x="279.52" y="767.1500000000001" as="targetPoint" />
          </mxGeometry>
        </mxCell>
        <mxCell id="5Y04EKecw3Fli7BW3O9q-11" value="Nombre Pista" style="ellipse;whiteSpace=wrap;html=1;align=center;" parent="1" vertex="1">
          <mxGeometry x="-286.70000000000005" y="303.85" width="70" height="40" as="geometry" />
        </mxCell>
        <mxCell id="5Y04EKecw3Fli7BW3O9q-12" value="" style="endArrow=none;html=1;rounded=0;entryX=0.5;entryY=1;entryDx=0;entryDy=0;exitX=0.25;exitY=0;exitDx=0;exitDy=0;" parent="1" source="ipYZzUYbfrLDNqTl1qCh-7" target="5Y04EKecw3Fli7BW3O9q-11" edge="1">
          <mxGeometry relative="1" as="geometry">
            <mxPoint x="-142.06000000000003" y="652.4100000000001" as="sourcePoint" />
            <mxPoint x="17.940000000000026" y="652.4100000000001" as="targetPoint" />
          </mxGeometry>
        </mxCell>
        <mxCell id="5Y04EKecw3Fli7BW3O9q-14" value="" style="endArrow=none;html=1;rounded=0;exitX=1;exitY=0.5;exitDx=0;exitDy=0;entryX=0;entryY=0.5;entryDx=0;entryDy=0;" parent="1" source="ipYZzUYbfrLDNqTl1qCh-7" target="ipYZzUYbfrLDNqTl1qCh-13" edge="1">
          <mxGeometry relative="1" as="geometry">
            <mxPoint x="-142.06000000000003" y="652.4100000000001" as="sourcePoint" />
            <mxPoint x="-125.62999999999957" y="340.4200000000001" as="targetPoint" />
          </mxGeometry>
        </mxCell>
        <mxCell id="5Y04EKecw3Fli7BW3O9q-16" value="ID Sprint" style="ellipse;whiteSpace=wrap;html=1;align=center;" parent="1" vertex="1">
          <mxGeometry x="-439.5899999999999" y="817.46" width="69.59" height="50.19" as="geometry" />
        </mxCell>
        <mxCell id="5Y04EKecw3Fli7BW3O9q-18" value="" style="endArrow=none;html=1;rounded=0;exitX=1;exitY=0.25;exitDx=0;exitDy=0;entryX=0;entryY=1;entryDx=0;entryDy=0;" parent="1" source="-eVVYZuYslbt9J-JJ0XE-3" target="5Y04EKecw3Fli7BW3O9q-16" edge="1">
          <mxGeometry relative="1" as="geometry">
            <mxPoint x="311.17999999999984" y="1163.1000000000001" as="sourcePoint" />
            <mxPoint x="471.17999999999995" y="1163.1000000000001" as="targetPoint" />
          </mxGeometry>
        </mxCell>
        <mxCell id="5Y04EKecw3Fli7BW3O9q-23" value="1" style="resizable=0;html=1;align=right;verticalAlign=bottom;" parent="1" connectable="0" vertex="1">
          <mxGeometry x="-195.17999999999995" y="599.9699999999999" as="geometry" />
        </mxCell>
        <mxCell id="0EfgHyagSkyGCWRGs3yf-1" value="ID Vehículo" style="ellipse;whiteSpace=wrap;html=1;" parent="1" vertex="1">
          <mxGeometry x="-531.2500000000002" y="380.16999999999996" width="60" height="35.4" as="geometry" />
        </mxCell>
        <mxCell id="0EfgHyagSkyGCWRGs3yf-6" value="" style="endArrow=none;html=1;rounded=0;startSize=14;endSize=14;sourcePerimeterSpacing=8;targetPerimeterSpacing=8;curved=1;entryX=0;entryY=0.5;entryDx=0;entryDy=0;exitX=1;exitY=0.5;exitDx=0;exitDy=0;" parent="1" source="-eVVYZuYslbt9J-JJ0XE-2" target="0EfgHyagSkyGCWRGs3yf-1" edge="1">
          <mxGeometry relative="1" as="geometry">
            <mxPoint x="-365.6" y="687.8700000000001" as="sourcePoint" />
            <mxPoint x="-205.6" y="687.8700000000001" as="targetPoint" />
          </mxGeometry>
        </mxCell>
        <mxCell id="0EfgHyagSkyGCWRGs3yf-8" value="ID Vehículo" style="ellipse;whiteSpace=wrap;html=1;" parent="1" vertex="1">
          <mxGeometry x="-428.48000000000013" y="930.5000000000001" width="60" height="40" as="geometry" />
        </mxCell>
        <mxCell id="0EfgHyagSkyGCWRGs3yf-9" value="" style="endArrow=none;html=1;rounded=0;startSize=14;endSize=14;sourcePerimeterSpacing=8;targetPerimeterSpacing=8;curved=1;entryX=0;entryY=0;entryDx=0;entryDy=0;exitX=1;exitY=0.75;exitDx=0;exitDy=0;" parent="1" source="-eVVYZuYslbt9J-JJ0XE-3" target="0EfgHyagSkyGCWRGs3yf-8" edge="1">
          <mxGeometry relative="1" as="geometry">
            <mxPoint x="-465.22000000000025" y="1020.7700000000002" as="sourcePoint" />
            <mxPoint x="-484.1832034355971" y="936.6278643762691" as="targetPoint" />
          </mxGeometry>
        </mxCell>
        <mxCell id="5QmATJn6TRXE4mpTiNKF-2" value="&lt;div&gt;País piloto&lt;/div&gt;" style="ellipse;whiteSpace=wrap;html=1;align=center;" parent="1" vertex="1">
          <mxGeometry x="457.1" y="1034.06" width="43.75" height="38.02" as="geometry" />
        </mxCell>
        <mxCell id="5QmATJn6TRXE4mpTiNKF-3" value="Cantidad Victorias Sprint Piloto" style="ellipse;whiteSpace=wrap;html=1;align=center;" parent="1" vertex="1">
          <mxGeometry x="644.58" y="820.41" width="95.02" height="48.89" as="geometry" />
        </mxCell>
        <mxCell id="5QmATJn6TRXE4mpTiNKF-4" value="Cantidad Victorias Carrera Piloto" style="ellipse;whiteSpace=wrap;html=1;align=center;" parent="1" vertex="1">
          <mxGeometry x="656.65" y="871.18" width="102.95" height="50.71" as="geometry" />
        </mxCell>
        <mxCell id="5QmATJn6TRXE4mpTiNKF-5" value="&lt;div&gt;Cantidad Podios Sprint Piloto&lt;/div&gt;" style="ellipse;whiteSpace=wrap;html=1;align=center;" parent="1" vertex="1">
          <mxGeometry x="541.9800000000001" y="801.9100000000001" width="85.13" height="52.33" as="geometry" />
        </mxCell>
        <mxCell id="5QmATJn6TRXE4mpTiNKF-9" value="" style="endArrow=none;html=1;rounded=0;entryX=0;entryY=0.5;entryDx=0;entryDy=0;exitX=1;exitY=0;exitDx=0;exitDy=0;" parent="1" source="QzIXMJOMqJ5zSQku9dIi-1" target="5QmATJn6TRXE4mpTiNKF-3" edge="1">
          <mxGeometry relative="1" as="geometry">
            <mxPoint x="422.10000000000014" y="915.2" as="sourcePoint" />
            <mxPoint x="582.1000000000003" y="915.2" as="targetPoint" />
          </mxGeometry>
        </mxCell>
        <mxCell id="5QmATJn6TRXE4mpTiNKF-11" value="" style="endArrow=none;html=1;rounded=0;entryX=0;entryY=0.5;entryDx=0;entryDy=0;exitX=1;exitY=0.25;exitDx=0;exitDy=0;" parent="1" source="QzIXMJOMqJ5zSQku9dIi-1" target="5QmATJn6TRXE4mpTiNKF-4" edge="1">
          <mxGeometry relative="1" as="geometry">
            <mxPoint x="422.10000000000014" y="915.2" as="sourcePoint" />
            <mxPoint x="582.1000000000003" y="915.2" as="targetPoint" />
          </mxGeometry>
        </mxCell>
        <mxCell id="5QmATJn6TRXE4mpTiNKF-22" value="&lt;div&gt;Salario piloto&lt;/div&gt;" style="ellipse;whiteSpace=wrap;html=1;align=center;" parent="1" vertex="1">
          <mxGeometry x="209.53999999999996" y="944.6999999999999" width="86.56" height="33.5" as="geometry" />
        </mxCell>
        <mxCell id="5QmATJn6TRXE4mpTiNKF-23" value="" style="endArrow=none;html=1;rounded=0;entryX=1;entryY=0.5;entryDx=0;entryDy=0;exitX=0;exitY=0.5;exitDx=0;exitDy=0;" parent="1" source="QzIXMJOMqJ5zSQku9dIi-1" target="5QmATJn6TRXE4mpTiNKF-22" edge="1">
          <mxGeometry relative="1" as="geometry">
            <mxPoint x="382.10000000000014" y="925.2" as="sourcePoint" />
            <mxPoint x="582.1000000000003" y="915.2" as="targetPoint" />
          </mxGeometry>
        </mxCell>
        <mxCell id="5QmATJn6TRXE4mpTiNKF-26" value="Cantidad Podios Carrera Vehículo" style="ellipse;whiteSpace=wrap;html=1;align=center;" parent="1" vertex="1">
          <mxGeometry x="238.33999999999995" y="230.1" width="106.24" height="60" as="geometry" />
        </mxCell>
        <mxCell id="5QmATJn6TRXE4mpTiNKF-27" value="Cantidad Podios Sprint Vehículo" style="ellipse;whiteSpace=wrap;html=1;align=center;" parent="1" vertex="1">
          <mxGeometry x="601.1" y="293.85" width="101.86" height="60" as="geometry" />
        </mxCell>
        <mxCell id="5QmATJn6TRXE4mpTiNKF-28" value="Cantidad Poles Position Vehículo " style="ellipse;whiteSpace=wrap;html=1;align=center;" parent="1" vertex="1">
          <mxGeometry x="625.44" y="230.1" width="114.16" height="60" as="geometry" />
        </mxCell>
        <mxCell id="5QmATJn6TRXE4mpTiNKF-29" value="&lt;div&gt;Vueltas Rapidas Carrera Vehículo&lt;/div&gt;" style="ellipse;whiteSpace=wrap;html=1;align=center;" parent="1" vertex="1">
          <mxGeometry x="242.95999999999995" y="293.85" width="107.29" height="60" as="geometry" />
        </mxCell>
        <mxCell id="5QmATJn6TRXE4mpTiNKF-32" value="" style="endArrow=none;html=1;rounded=0;entryX=0.5;entryY=1;entryDx=0;entryDy=0;exitX=0.75;exitY=0;exitDx=0;exitDy=0;" parent="1" source="hz-Ye3yR5dOZ-r6eBfFQ-2" target="spF546G6xqbUf-VjN9VN-4" edge="1">
          <mxGeometry relative="1" as="geometry">
            <mxPoint x="393.79999999999995" y="506.35" as="sourcePoint" />
            <mxPoint x="553.8" y="506.35" as="targetPoint" />
          </mxGeometry>
        </mxCell>
        <mxCell id="5QmATJn6TRXE4mpTiNKF-34" value="" style="endArrow=none;html=1;rounded=0;entryX=0.5;entryY=1;entryDx=0;entryDy=0;exitX=0.25;exitY=0;exitDx=0;exitDy=0;" parent="1" source="hz-Ye3yR5dOZ-r6eBfFQ-2" target="Tzdz77N2tQg-lTi0Wvo8-22" edge="1">
          <mxGeometry relative="1" as="geometry">
            <mxPoint x="493.79999999999995" y="266.35" as="sourcePoint" />
            <mxPoint x="553.8" y="506.35" as="targetPoint" />
          </mxGeometry>
        </mxCell>
        <mxCell id="5QmATJn6TRXE4mpTiNKF-36" value="" style="endArrow=none;html=1;rounded=0;exitX=0;exitY=1;exitDx=0;exitDy=0;entryX=1;entryY=0;entryDx=0;entryDy=0;" parent="1" source="hz-Ye3yR5dOZ-r6eBfFQ-2" target="QzIXMJOMqJ5zSQku9dIi-8" edge="1">
          <mxGeometry relative="1" as="geometry">
            <mxPoint x="503.79999999999995" y="356.35" as="sourcePoint" />
            <mxPoint x="505.79999999999995" y="376.35" as="targetPoint" />
          </mxGeometry>
        </mxCell>
        <mxCell id="5QmATJn6TRXE4mpTiNKF-40" value="" style="endArrow=none;html=1;rounded=0;entryX=0;entryY=0.5;entryDx=0;entryDy=0;exitX=1;exitY=0.5;exitDx=0;exitDy=0;" parent="1" source="hz-Ye3yR5dOZ-r6eBfFQ-2" target="5QmATJn6TRXE4mpTiNKF-27" edge="1">
          <mxGeometry relative="1" as="geometry">
            <mxPoint x="393.79999999999995" y="506.35" as="sourcePoint" />
            <mxPoint x="553.8" y="506.35" as="targetPoint" />
          </mxGeometry>
        </mxCell>
        <mxCell id="5QmATJn6TRXE4mpTiNKF-44" value="" style="endArrow=none;html=1;rounded=0;exitX=1;exitY=0;exitDx=0;exitDy=0;entryX=0;entryY=1;entryDx=0;entryDy=0;" parent="1" source="hz-Ye3yR5dOZ-r6eBfFQ-2" edge="1">
          <mxGeometry relative="1" as="geometry">
            <mxPoint x="393.79999999999995" y="506.35" as="sourcePoint" />
            <mxPoint x="647.2166589531653" y="281.3280742351765" as="targetPoint" />
          </mxGeometry>
        </mxCell>
        <mxCell id="5QmATJn6TRXE4mpTiNKF-46" value="" style="endArrow=none;html=1;rounded=0;exitX=0;exitY=0.5;exitDx=0;exitDy=0;entryX=1;entryY=0.5;entryDx=0;entryDy=0;" parent="1" source="hz-Ye3yR5dOZ-r6eBfFQ-2" target="5QmATJn6TRXE4mpTiNKF-29" edge="1">
          <mxGeometry relative="1" as="geometry">
            <mxPoint x="393.79999999999995" y="506.35" as="sourcePoint" />
            <mxPoint x="382.79999999999995" y="401.35" as="targetPoint" />
          </mxGeometry>
        </mxCell>
        <mxCell id="5QmATJn6TRXE4mpTiNKF-48" value="" style="endArrow=none;html=1;rounded=0;exitX=0;exitY=0;exitDx=0;exitDy=0;entryX=1;entryY=1;entryDx=0;entryDy=0;" parent="1" source="hz-Ye3yR5dOZ-r6eBfFQ-2" target="5QmATJn6TRXE4mpTiNKF-26" edge="1">
          <mxGeometry relative="1" as="geometry">
            <mxPoint x="393.79999999999995" y="506.35" as="sourcePoint" />
            <mxPoint x="372.91999999999985" y="361.94000000000017" as="targetPoint" />
          </mxGeometry>
        </mxCell>
        <mxCell id="5QmATJn6TRXE4mpTiNKF-52" value="Cantidad Podios Sprint Equipo" style="ellipse;whiteSpace=wrap;html=1;align=center;" parent="1" vertex="1">
          <mxGeometry x="616.22" y="735.66" width="107.29" height="60" as="geometry" />
        </mxCell>
        <mxCell id="5QmATJn6TRXE4mpTiNKF-55" value="Cantidad Victorias Sprint Equipo" style="ellipse;whiteSpace=wrap;html=1;align=center;" parent="1" vertex="1">
          <mxGeometry x="265.6" y="673.57" width="94" height="55" as="geometry" />
        </mxCell>
        <mxCell id="5QmATJn6TRXE4mpTiNKF-59" value="Salario Equipo" style="ellipse;whiteSpace=wrap;html=1;align=center;" parent="1" vertex="1">
          <mxGeometry x="691.1600000000003" y="692.3199999999998" width="59.11" height="47.5" as="geometry" />
        </mxCell>
        <mxCell id="5QmATJn6TRXE4mpTiNKF-60" value="Puntos Equipo" style="ellipse;whiteSpace=wrap;html=1;align=center;" parent="1" vertex="1">
          <mxGeometry x="345.96000000000026" y="496.0699999999998" width="60" height="37.5" as="geometry" />
        </mxCell>
        <mxCell id="5QmATJn6TRXE4mpTiNKF-61" value="País Equipo" style="ellipse;whiteSpace=wrap;html=1;align=center;" parent="1" vertex="1">
          <mxGeometry x="549.6" y="724.49" width="63.33" height="45.01" as="geometry" />
        </mxCell>
        <mxCell id="5QmATJn6TRXE4mpTiNKF-64" value="" style="endArrow=none;html=1;rounded=0;entryX=0;entryY=0.5;entryDx=0;entryDy=0;exitX=1;exitY=0.25;exitDx=0;exitDy=0;" parent="1" source="spF546G6xqbUf-VjN9VN-5" target="Tzdz77N2tQg-lTi0Wvo8-46" edge="1">
          <mxGeometry relative="1" as="geometry">
            <mxPoint x="396.65" y="672.3199999999999" as="sourcePoint" />
            <mxPoint x="556.65" y="672.3199999999999" as="targetPoint" />
          </mxGeometry>
        </mxCell>
        <mxCell id="5QmATJn6TRXE4mpTiNKF-66" value="" style="endArrow=none;html=1;rounded=0;entryX=0;entryY=1;entryDx=0;entryDy=0;exitX=1;exitY=0.5;exitDx=0;exitDy=0;" parent="1" source="spF546G6xqbUf-VjN9VN-5" target="Tzdz77N2tQg-lTi0Wvo8-49" edge="1">
          <mxGeometry relative="1" as="geometry">
            <mxPoint x="586.65" y="618.3199999999999" as="sourcePoint" />
            <mxPoint x="556.65" y="672.3199999999999" as="targetPoint" />
          </mxGeometry>
        </mxCell>
        <mxCell id="5QmATJn6TRXE4mpTiNKF-68" value="" style="endArrow=none;html=1;rounded=0;entryX=0;entryY=0.5;entryDx=0;entryDy=0;exitX=1;exitY=0.75;exitDx=0;exitDy=0;" parent="1" source="spF546G6xqbUf-VjN9VN-5" target="YopcUDbEfr16_ToL0JRa-2" edge="1">
          <mxGeometry relative="1" as="geometry">
            <mxPoint x="566.65" y="612.3199999999999" as="sourcePoint" />
            <mxPoint x="627.1100000000047" y="662.6799999999998" as="targetPoint" />
          </mxGeometry>
        </mxCell>
        <mxCell id="5QmATJn6TRXE4mpTiNKF-75" value="" style="endArrow=none;html=1;rounded=0;entryX=0.5;entryY=1;entryDx=0;entryDy=0;exitX=0;exitY=0;exitDx=0;exitDy=0;" parent="1" source="spF546G6xqbUf-VjN9VN-5" target="5QmATJn6TRXE4mpTiNKF-60" edge="1">
          <mxGeometry relative="1" as="geometry">
            <mxPoint x="396.65" y="672.3199999999999" as="sourcePoint" />
            <mxPoint x="556.65" y="672.3199999999999" as="targetPoint" />
          </mxGeometry>
        </mxCell>
        <mxCell id="5QmATJn6TRXE4mpTiNKF-77" value="" style="endArrow=none;html=1;rounded=0;entryX=0;entryY=0.5;entryDx=0;entryDy=0;exitX=1;exitY=1;exitDx=0;exitDy=0;" parent="1" source="spF546G6xqbUf-VjN9VN-5" target="5QmATJn6TRXE4mpTiNKF-59" edge="1">
          <mxGeometry relative="1" as="geometry">
            <mxPoint x="396.65" y="672.3199999999999" as="sourcePoint" />
            <mxPoint x="556.65" y="672.3199999999999" as="targetPoint" />
          </mxGeometry>
        </mxCell>
        <mxCell id="5QmATJn6TRXE4mpTiNKF-79" value="" style="endArrow=none;html=1;rounded=0;entryX=0;entryY=0;entryDx=0;entryDy=0;exitX=0.75;exitY=1;exitDx=0;exitDy=0;" parent="1" source="spF546G6xqbUf-VjN9VN-5" target="5QmATJn6TRXE4mpTiNKF-61" edge="1">
          <mxGeometry relative="1" as="geometry">
            <mxPoint x="396.65" y="672.3199999999999" as="sourcePoint" />
            <mxPoint x="556.65" y="672.3199999999999" as="targetPoint" />
          </mxGeometry>
        </mxCell>
        <mxCell id="5QmATJn6TRXE4mpTiNKF-81" value="" style="endArrow=none;html=1;rounded=0;entryX=1;entryY=0;entryDx=0;entryDy=0;exitX=0.25;exitY=1;exitDx=0;exitDy=0;" parent="1" source="spF546G6xqbUf-VjN9VN-5" target="Tzdz77N2tQg-lTi0Wvo8-40" edge="1">
          <mxGeometry relative="1" as="geometry">
            <mxPoint x="396.65" y="672.3199999999999" as="sourcePoint" />
            <mxPoint x="556.65" y="672.3199999999999" as="targetPoint" />
          </mxGeometry>
        </mxCell>
        <mxCell id="5QmATJn6TRXE4mpTiNKF-85" value="" style="endArrow=none;html=1;rounded=0;entryX=1;entryY=0;entryDx=0;entryDy=0;exitX=0;exitY=1;exitDx=0;exitDy=0;" parent="1" source="spF546G6xqbUf-VjN9VN-5" target="5QmATJn6TRXE4mpTiNKF-55" edge="1">
          <mxGeometry relative="1" as="geometry">
            <mxPoint x="396.65" y="672.3199999999999" as="sourcePoint" />
            <mxPoint x="556.65" y="672.3199999999999" as="targetPoint" />
          </mxGeometry>
        </mxCell>
        <mxCell id="5QmATJn6TRXE4mpTiNKF-87" value="" style="endArrow=none;html=1;rounded=0;entryX=1;entryY=0.5;entryDx=0;entryDy=0;exitX=0;exitY=0.75;exitDx=0;exitDy=0;" parent="1" source="spF546G6xqbUf-VjN9VN-5" target="Tzdz77N2tQg-lTi0Wvo8-43" edge="1">
          <mxGeometry relative="1" as="geometry">
            <mxPoint x="406.65" y="622.3199999999999" as="sourcePoint" />
            <mxPoint x="556.65" y="672.3199999999999" as="targetPoint" />
          </mxGeometry>
        </mxCell>
        <mxCell id="5QmATJn6TRXE4mpTiNKF-89" value="" style="endArrow=none;html=1;rounded=0;entryX=0;entryY=0;entryDx=0;entryDy=0;exitX=1;exitY=1;exitDx=0;exitDy=0;" parent="1" source="spF546G6xqbUf-VjN9VN-5" target="5QmATJn6TRXE4mpTiNKF-52" edge="1">
          <mxGeometry relative="1" as="geometry">
            <mxPoint x="396.65" y="672.3199999999999" as="sourcePoint" />
            <mxPoint x="556.65" y="672.3199999999999" as="targetPoint" />
          </mxGeometry>
        </mxCell>
        <mxCell id="5QmATJn6TRXE4mpTiNKF-91" value="" style="endArrow=none;html=1;rounded=0;entryX=1;entryY=0.5;entryDx=0;entryDy=0;exitX=0;exitY=0.25;exitDx=0;exitDy=0;" parent="1" source="spF546G6xqbUf-VjN9VN-5" target="Tzdz77N2tQg-lTi0Wvo8-56" edge="1">
          <mxGeometry relative="1" as="geometry">
            <mxPoint x="396.65" y="672.3199999999999" as="sourcePoint" />
            <mxPoint x="556.65" y="672.3199999999999" as="targetPoint" />
          </mxGeometry>
        </mxCell>
        <mxCell id="5QmATJn6TRXE4mpTiNKF-96" value="" style="endArrow=none;html=1;rounded=0;entryX=0.5;entryY=0;entryDx=0;entryDy=0;exitX=0.5;exitY=1;exitDx=0;exitDy=0;" parent="1" source="5QmATJn6TRXE4mpTiNKF-106" target="QzIXMJOMqJ5zSQku9dIi-1" edge="1">
          <mxGeometry relative="1" as="geometry">
            <mxPoint x="478.6600000000002" y="821.6700000000001" as="sourcePoint" />
            <mxPoint x="481.6600000000002" y="931.6700000000001" as="targetPoint" />
          </mxGeometry>
        </mxCell>
        <mxCell id="5QmATJn6TRXE4mpTiNKF-97" value="N" style="resizable=0;html=1;align=right;verticalAlign=bottom;" parent="5QmATJn6TRXE4mpTiNKF-96" connectable="0" vertex="1">
          <mxGeometry x="1" relative="1" as="geometry">
            <mxPoint x="22" y="-3" as="offset" />
          </mxGeometry>
        </mxCell>
        <mxCell id="5QmATJn6TRXE4mpTiNKF-100" value="" style="endArrow=none;html=1;rounded=0;exitX=0.75;exitY=0;exitDx=0;exitDy=0;entryX=0;entryY=1;entryDx=0;entryDy=0;" parent="1" source="QzIXMJOMqJ5zSQku9dIi-1" target="5QmATJn6TRXE4mpTiNKF-5" edge="1">
          <mxGeometry relative="1" as="geometry">
            <mxPoint x="602.1000000000003" y="755.2" as="sourcePoint" />
            <mxPoint x="762.1000000000003" y="755.2" as="targetPoint" />
          </mxGeometry>
        </mxCell>
        <mxCell id="5QmATJn6TRXE4mpTiNKF-102" value="" style="endArrow=none;html=1;rounded=0;entryX=0.5;entryY=1;entryDx=0;entryDy=0;exitX=0;exitY=0;exitDx=0;exitDy=0;" parent="1" source="QzIXMJOMqJ5zSQku9dIi-1" target="Tzdz77N2tQg-lTi0Wvo8-53" edge="1">
          <mxGeometry relative="1" as="geometry">
            <mxPoint x="602.1000000000003" y="755.2" as="sourcePoint" />
            <mxPoint x="762.1000000000003" y="755.2" as="targetPoint" />
          </mxGeometry>
        </mxCell>
        <mxCell id="5QmATJn6TRXE4mpTiNKF-106" value="Conducen" style="shape=rhombus;perimeter=rhombusPerimeter;whiteSpace=wrap;html=1;align=center;" parent="1" vertex="1">
          <mxGeometry x="418.97000000000014" y="742.37" width="120" height="60" as="geometry" />
        </mxCell>
        <mxCell id="5QmATJn6TRXE4mpTiNKF-107" value="Corren" style="shape=rhombus;perimeter=rhombusPerimeter;whiteSpace=wrap;html=1;align=center;" parent="1" vertex="1">
          <mxGeometry x="421.35" y="399.36" width="120" height="60" as="geometry" />
        </mxCell>
        <mxCell id="5QmATJn6TRXE4mpTiNKF-110" value="" style="endArrow=none;html=1;rounded=0;exitX=0.5;exitY=0;exitDx=0;exitDy=0;entryX=0.5;entryY=1;entryDx=0;entryDy=0;" parent="1" source="5QmATJn6TRXE4mpTiNKF-106" target="spF546G6xqbUf-VjN9VN-5" edge="1">
          <mxGeometry relative="1" as="geometry">
            <mxPoint x="100.83000000000001" y="729.13" as="sourcePoint" />
            <mxPoint x="367.26" y="771.63" as="targetPoint" />
          </mxGeometry>
        </mxCell>
        <mxCell id="5QmATJn6TRXE4mpTiNKF-111" value="1" style="resizable=0;html=1;align=right;verticalAlign=bottom;" parent="5QmATJn6TRXE4mpTiNKF-110" connectable="0" vertex="1">
          <mxGeometry x="1" relative="1" as="geometry">
            <mxPoint x="19" y="21" as="offset" />
          </mxGeometry>
        </mxCell>
        <mxCell id="5QmATJn6TRXE4mpTiNKF-112" value="" style="endArrow=none;html=1;rounded=0;exitX=0.5;exitY=1;exitDx=0;exitDy=0;entryX=0.5;entryY=0;entryDx=0;entryDy=0;" parent="1" source="5QmATJn6TRXE4mpTiNKF-107" target="spF546G6xqbUf-VjN9VN-5" edge="1">
          <mxGeometry relative="1" as="geometry">
            <mxPoint x="326.54999999999995" y="634.6" as="sourcePoint" />
            <mxPoint x="407.98" y="487.1" as="targetPoint" />
          </mxGeometry>
        </mxCell>
        <mxCell id="5QmATJn6TRXE4mpTiNKF-155" value="&lt;div&gt;ID Clasificación&lt;/div&gt;" style="ellipse;whiteSpace=wrap;html=1;align=center;" parent="1" vertex="1">
          <mxGeometry x="-653.9000000000002" y="449.53" width="90" height="32.5" as="geometry" />
        </mxCell>
        <mxCell id="5QmATJn6TRXE4mpTiNKF-156" value="" style="endArrow=none;html=1;rounded=0;entryX=0.5;entryY=0;entryDx=0;entryDy=0;exitX=0.5;exitY=1;exitDx=0;exitDy=0;" parent="1" source="-eVVYZuYslbt9J-JJ0XE-2" target="5QmATJn6TRXE4mpTiNKF-155" edge="1">
          <mxGeometry relative="1" as="geometry">
            <mxPoint x="-610" y="420" as="sourcePoint" />
            <mxPoint x="-235.55000000000004" y="456.41999999999996" as="targetPoint" />
          </mxGeometry>
        </mxCell>
        <mxCell id="5QmATJn6TRXE4mpTiNKF-158" value="Vueltas completadas" style="ellipse;whiteSpace=wrap;html=1;align=center;" parent="1" vertex="1">
          <mxGeometry x="-555.8000000000001" y="317.87" width="80" height="40" as="geometry" />
        </mxCell>
        <mxCell id="5QmATJn6TRXE4mpTiNKF-170" value="" style="endArrow=none;html=1;rounded=0;entryX=0;entryY=1;entryDx=0;entryDy=0;exitX=0.75;exitY=0;exitDx=0;exitDy=0;" parent="1" source="-eVVYZuYslbt9J-JJ0XE-2" target="5QmATJn6TRXE4mpTiNKF-158" edge="1">
          <mxGeometry relative="1" as="geometry">
            <mxPoint x="-615.5500000000001" y="506.42" as="sourcePoint" />
            <mxPoint x="-455.5500000000002" y="506.42" as="targetPoint" />
          </mxGeometry>
        </mxCell>
        <mxCell id="5QmATJn6TRXE4mpTiNKF-219" value="Posición de Largada" style="ellipse;whiteSpace=wrap;html=1;align=center;" parent="1" vertex="1">
          <mxGeometry x="-548.6800000000001" y="933.0000000000003" width="90" height="40" as="geometry" />
        </mxCell>
        <mxCell id="5QmATJn6TRXE4mpTiNKF-223" value="" style="endArrow=none;html=1;rounded=0;entryX=0.5;entryY=0;entryDx=0;entryDy=0;exitX=0.75;exitY=1;exitDx=0;exitDy=0;" parent="1" source="-eVVYZuYslbt9J-JJ0XE-3" target="5QmATJn6TRXE4mpTiNKF-219" edge="1">
          <mxGeometry relative="1" as="geometry">
            <mxPoint x="-697.3600000000001" y="970.7700000000002" as="sourcePoint" />
            <mxPoint x="-537.3600000000001" y="970.7700000000002" as="targetPoint" />
          </mxGeometry>
        </mxCell>
        <mxCell id="5QmATJn6TRXE4mpTiNKF-257" value="Carrera (T.H)" style="whiteSpace=wrap;html=1;align=center;" parent="1" vertex="1">
          <mxGeometry x="-697.3147007255302" y="584.5200000000002" width="108.75" height="40" as="geometry" />
        </mxCell>
        <mxCell id="5QmATJn6TRXE4mpTiNKF-258" value="Posición Carrera" style="ellipse;whiteSpace=wrap;html=1;align=center;" parent="1" vertex="1">
          <mxGeometry x="-669.1947007255301" y="520.0000000000002" width="52.5" height="45" as="geometry" />
        </mxCell>
        <mxCell id="5QmATJn6TRXE4mpTiNKF-260" value="" style="endArrow=none;html=1;rounded=0;entryX=0.5;entryY=1;entryDx=0;entryDy=0;exitX=0.5;exitY=0;exitDx=0;exitDy=0;" parent="1" source="5QmATJn6TRXE4mpTiNKF-257" target="5QmATJn6TRXE4mpTiNKF-258" edge="1">
          <mxGeometry relative="1" as="geometry">
            <mxPoint x="-389.84470072552995" y="860.8400000000001" as="sourcePoint" />
            <mxPoint x="-229.84470072553012" y="860.8400000000001" as="targetPoint" />
          </mxGeometry>
        </mxCell>
        <mxCell id="5QmATJn6TRXE4mpTiNKF-264" value="&lt;div&gt;Puntos&lt;/div&gt;Carrera" style="ellipse;whiteSpace=wrap;html=1;align=center;" parent="1" vertex="1">
          <mxGeometry x="-675.7547007255299" y="670.7300000000001" width="65" height="45" as="geometry" />
        </mxCell>
        <mxCell id="5QmATJn6TRXE4mpTiNKF-265" value="" style="endArrow=none;html=1;rounded=0;entryX=0.5;entryY=0;entryDx=0;entryDy=0;exitX=0.5;exitY=1;exitDx=0;exitDy=0;" parent="1" source="5QmATJn6TRXE4mpTiNKF-257" target="5QmATJn6TRXE4mpTiNKF-264" edge="1">
          <mxGeometry relative="1" as="geometry">
            <mxPoint x="-693.69" y="622.8900000000001" as="sourcePoint" />
            <mxPoint x="-117.34470072553" y="815.8400000000001" as="targetPoint" />
          </mxGeometry>
        </mxCell>
        <mxCell id="5QmATJn6TRXE4mpTiNKF-267" value="Vueltas Completadas" style="ellipse;whiteSpace=wrap;html=1;align=center;" parent="1" vertex="1">
          <mxGeometry x="-604.02" y="668.2800000000001" width="95.29" height="37.16" as="geometry" />
        </mxCell>
        <mxCell id="5QmATJn6TRXE4mpTiNKF-268" value="" style="endArrow=none;html=1;rounded=0;entryX=0.5;entryY=0;entryDx=0;entryDy=0;exitX=0.75;exitY=1;exitDx=0;exitDy=0;" parent="1" source="5QmATJn6TRXE4mpTiNKF-257" target="5QmATJn6TRXE4mpTiNKF-267" edge="1">
          <mxGeometry relative="1" as="geometry">
            <mxPoint x="-277.3447007255302" y="815.8400000000001" as="sourcePoint" />
            <mxPoint x="-117.34470072553" y="815.8400000000001" as="targetPoint" />
          </mxGeometry>
        </mxCell>
        <mxCell id="5QmATJn6TRXE4mpTiNKF-270" value="ID Vuelta Rápida Carrera" style="ellipse;whiteSpace=wrap;html=1;align=center;" parent="1" vertex="1">
          <mxGeometry x="-950" y="497.02000000000004" width="77.14" height="57.34" as="geometry" />
        </mxCell>
        <mxCell id="5QmATJn6TRXE4mpTiNKF-271" value="" style="endArrow=none;html=1;rounded=0;entryX=0.5;entryY=1;entryDx=0;entryDy=0;exitX=0.25;exitY=0;exitDx=0;exitDy=0;" parent="1" source="O0nTV2FG2HkwLItUEc8_-1" target="5QmATJn6TRXE4mpTiNKF-270" edge="1">
          <mxGeometry relative="1" as="geometry">
            <mxPoint x="-912.94" y="528.43" as="sourcePoint" />
            <mxPoint x="-481.53470072553006" y="594.2700000000002" as="targetPoint" />
          </mxGeometry>
        </mxCell>
        <mxCell id="5QmATJn6TRXE4mpTiNKF-273" value="ID Gran Premio" style="ellipse;whiteSpace=wrap;html=1;align=center;" parent="1" vertex="1">
          <mxGeometry x="-588.5647007255302" y="530.6000000000001" width="57.5" height="35" as="geometry" />
        </mxCell>
        <mxCell id="5QmATJn6TRXE4mpTiNKF-276" value="" style="endArrow=none;html=1;rounded=0;entryX=0.75;entryY=0;entryDx=0;entryDy=0;exitX=0;exitY=1;exitDx=0;exitDy=0;" parent="1" source="5QmATJn6TRXE4mpTiNKF-273" target="5QmATJn6TRXE4mpTiNKF-257" edge="1">
          <mxGeometry relative="1" as="geometry">
            <mxPoint x="-525.9147007255245" y="641.3900000000002" as="sourcePoint" />
            <mxPoint x="-574.8447007255301" y="635.8400000000003" as="targetPoint" />
          </mxGeometry>
        </mxCell>
        <mxCell id="5QmATJn6TRXE4mpTiNKF-281" value="ID Vehículo" style="ellipse;whiteSpace=wrap;html=1;" parent="1" vertex="1">
          <mxGeometry x="-511.13470072553" y="554.3600000000002" width="60" height="40" as="geometry" />
        </mxCell>
        <mxCell id="5QmATJn6TRXE4mpTiNKF-282" value="" style="endArrow=none;html=1;rounded=0;startSize=14;endSize=14;sourcePerimeterSpacing=8;targetPerimeterSpacing=8;curved=1;entryX=0;entryY=0.5;entryDx=0;entryDy=0;exitX=1;exitY=0.25;exitDx=0;exitDy=0;" parent="1" source="5QmATJn6TRXE4mpTiNKF-257" target="5QmATJn6TRXE4mpTiNKF-281" edge="1">
          <mxGeometry relative="1" as="geometry">
            <mxPoint x="-563.5947007255301" y="735.8400000000001" as="sourcePoint" />
            <mxPoint x="-582.5579041611269" y="651.6978643762692" as="targetPoint" />
          </mxGeometry>
        </mxCell>
        <mxCell id="5QmATJn6TRXE4mpTiNKF-295" value="" style="endArrow=none;html=1;rounded=0;entryX=1;entryY=0.5;entryDx=0;entryDy=0;exitX=0;exitY=0.5;exitDx=0;exitDy=0;" parent="1" source="Y4V3PFolOMbgDIU-VeXU-22" target="5QmATJn6TRXE4mpTiNKF-257" edge="1">
          <mxGeometry relative="1" as="geometry">
            <mxPoint x="-845.5" y="747.34" as="sourcePoint" />
            <mxPoint x="-685.5" y="747.34" as="targetPoint" />
          </mxGeometry>
        </mxCell>
        <mxCell id="ipYZzUYbfrLDNqTl1qCh-7" value="Circuitos" style="whiteSpace=wrap;html=1;align=center;" parent="1" vertex="1">
          <mxGeometry x="-265.9" y="364.35999999999996" width="100" height="40" as="geometry" />
        </mxCell>
        <mxCell id="ipYZzUYbfrLDNqTl1qCh-8" value="Distancia Sprint" style="ellipse;whiteSpace=wrap;html=1;align=center;" parent="1" vertex="1">
          <mxGeometry x="-192.33" y="673.5700000000002" width="61.99" height="42.16" as="geometry" />
        </mxCell>
        <mxCell id="ipYZzUYbfrLDNqTl1qCh-9" value="" style="endArrow=none;html=1;rounded=0;exitX=0.25;exitY=1;exitDx=0;exitDy=0;entryX=0.5;entryY=0;entryDx=0;entryDy=0;" parent="1" source="QzIXMJOMqJ5zSQku9dIi-2" target="ipYZzUYbfrLDNqTl1qCh-8" edge="1">
          <mxGeometry relative="1" as="geometry">
            <mxPoint x="-235.94000000000003" y="654.82" as="sourcePoint" />
            <mxPoint x="-143.4" y="672" as="targetPoint" />
          </mxGeometry>
        </mxCell>
        <mxCell id="ipYZzUYbfrLDNqTl1qCh-11" value="" style="endArrow=none;html=1;rounded=0;entryX=0.5;entryY=1;entryDx=0;entryDy=0;exitX=0.75;exitY=0;exitDx=0;exitDy=0;" parent="1" source="ipYZzUYbfrLDNqTl1qCh-7" target="5Y04EKecw3Fli7BW3O9q-1" edge="1">
          <mxGeometry relative="1" as="geometry">
            <mxPoint x="-313.65" y="523.5400000000001" as="sourcePoint" />
            <mxPoint x="-153.65" y="523.5400000000001" as="targetPoint" />
          </mxGeometry>
        </mxCell>
        <mxCell id="ipYZzUYbfrLDNqTl1qCh-13" value="Longitud Circuito (m)" style="ellipse;whiteSpace=wrap;html=1;align=center;" parent="1" vertex="1">
          <mxGeometry x="-147.96999999999997" y="361.86" width="73.78" height="45" as="geometry" />
        </mxCell>
        <mxCell id="ipYZzUYbfrLDNqTl1qCh-14" value="" style="endArrow=none;html=1;rounded=0;entryX=0.5;entryY=1;entryDx=0;entryDy=0;exitX=0.5;exitY=0;exitDx=0;exitDy=0;" parent="1" source="Y4V3PFolOMbgDIU-VeXU-1" target="ipYZzUYbfrLDNqTl1qCh-7" edge="1">
          <mxGeometry relative="1" as="geometry">
            <mxPoint x="-207.56" y="445" as="sourcePoint" />
            <mxPoint x="-143.10000000000002" y="579.82" as="targetPoint" />
          </mxGeometry>
        </mxCell>
        <mxCell id="ipYZzUYbfrLDNqTl1qCh-15" value="1" style="resizable=0;html=1;align=right;verticalAlign=bottom;" parent="ipYZzUYbfrLDNqTl1qCh-14" connectable="0" vertex="1">
          <mxGeometry x="1" relative="1" as="geometry">
            <mxPoint x="-9" y="25" as="offset" />
          </mxGeometry>
        </mxCell>
        <mxCell id="ipYZzUYbfrLDNqTl1qCh-18" value="" style="endArrow=none;html=1;rounded=0;entryX=0.5;entryY=1;entryDx=0;entryDy=0;exitX=0.5;exitY=0;exitDx=0;exitDy=0;" parent="1" source="Y4V3PFolOMbgDIU-VeXU-4" target="ipYZzUYbfrLDNqTl1qCh-20" edge="1">
          <mxGeometry relative="1" as="geometry">
            <mxPoint x="-1.6899999999999125" y="455.0000000000001" as="sourcePoint" />
            <mxPoint x="71.62999999999997" y="495.46" as="targetPoint" />
          </mxGeometry>
        </mxCell>
        <mxCell id="ipYZzUYbfrLDNqTl1qCh-19" value="N" style="resizable=0;html=1;align=right;verticalAlign=bottom;" parent="ipYZzUYbfrLDNqTl1qCh-18" connectable="0" vertex="1">
          <mxGeometry x="1" relative="1" as="geometry">
            <mxPoint x="-8" y="3" as="offset" />
          </mxGeometry>
        </mxCell>
        <mxCell id="ipYZzUYbfrLDNqTl1qCh-20" value="Temporadas" style="whiteSpace=wrap;html=1;align=center;" parent="1" vertex="1">
          <mxGeometry x="-51.690000000000026" y="371.4" width="100" height="40" as="geometry" />
        </mxCell>
        <mxCell id="ipYZzUYbfrLDNqTl1qCh-21" value="" style="endArrow=none;html=1;rounded=0;exitX=0.5;exitY=0;exitDx=0;exitDy=0;entryX=0.5;entryY=1;entryDx=0;entryDy=0;" parent="1" source="ipYZzUYbfrLDNqTl1qCh-20" target="ipYZzUYbfrLDNqTl1qCh-23" edge="1">
          <mxGeometry relative="1" as="geometry">
            <mxPoint x="-268.46000000000004" y="617.98" as="sourcePoint" />
            <mxPoint x="51.539999999999964" y="547.98" as="targetPoint" />
            <Array as="points" />
          </mxGeometry>
        </mxCell>
        <mxCell id="ipYZzUYbfrLDNqTl1qCh-23" value="Año" style="ellipse;whiteSpace=wrap;html=1;align=center;" parent="1" vertex="1">
          <mxGeometry x="-21.690000000000026" y="317.87" width="40" height="35.98" as="geometry" />
        </mxCell>
        <mxCell id="7kZwVtLdpsjTmvR43rl8-5" value="" style="endArrow=none;html=1;rounded=0;exitX=1;exitY=0.5;exitDx=0;exitDy=0;entryX=0;entryY=0.5;entryDx=0;entryDy=0;" parent="1" source="-eVVYZuYslbt9J-JJ0XE-3" target="Tzdz77N2tQg-lTi0Wvo8-85" edge="1">
          <mxGeometry relative="1" as="geometry">
            <mxPoint x="-516.4300000000001" y="805.5600000000001" as="sourcePoint" />
            <mxPoint x="-356.42999999999995" y="805.5600000000001" as="targetPoint" />
          </mxGeometry>
        </mxCell>
        <mxCell id="7T7jvsqt7ufRL5xRAqq0-1" style="edgeStyle=orthogonalEdgeStyle;rounded=0;orthogonalLoop=1;jettySize=auto;html=1;exitX=0.5;exitY=1;exitDx=0;exitDy=0;" parent="1" source="5QmATJn6TRXE4mpTiNKF-60" target="5QmATJn6TRXE4mpTiNKF-60" edge="1">
          <mxGeometry relative="1" as="geometry" />
        </mxCell>
        <mxCell id="7T7jvsqt7ufRL5xRAqq0-3" value="" style="endArrow=none;html=1;rounded=0;entryX=1;entryY=0.5;entryDx=0;entryDy=0;exitX=0;exitY=0.5;exitDx=0;exitDy=0;" parent="1" source="spF546G6xqbUf-VjN9VN-5" target="QzIXMJOMqJ5zSQku9dIi-53" edge="1">
          <mxGeometry relative="1" as="geometry">
            <mxPoint x="285.06000000000006" y="605.95" as="sourcePoint" />
            <mxPoint x="184.06000000000003" y="605.95" as="targetPoint" />
          </mxGeometry>
        </mxCell>
        <mxCell id="7T7jvsqt7ufRL5xRAqq0-4" value="N" style="resizable=0;html=1;align=right;verticalAlign=bottom;" parent="7T7jvsqt7ufRL5xRAqq0-3" connectable="0" vertex="1">
          <mxGeometry x="1" relative="1" as="geometry">
            <mxPoint x="6" y="-4" as="offset" />
          </mxGeometry>
        </mxCell>
        <mxCell id="7T7jvsqt7ufRL5xRAqq0-5" value="N" style="resizable=0;html=1;align=right;verticalAlign=bottom;" parent="1" connectable="0" vertex="1">
          <mxGeometry x="400.9542686692931" y="604.6504292090272" as="geometry" />
        </mxCell>
        <mxCell id="7T7jvsqt7ufRL5xRAqq0-6" value="1" style="resizable=0;html=1;align=right;verticalAlign=bottom;" parent="1" connectable="0" vertex="1">
          <mxGeometry x="90.79530290466582" y="619.6503003572807" as="geometry">
            <mxPoint x="-109" y="-18" as="offset" />
          </mxGeometry>
        </mxCell>
        <mxCell id="7T7jvsqt7ufRL5xRAqq0-7" value="ID Equipo" style="ellipse;whiteSpace=wrap;html=1;align=center;" parent="1" vertex="1">
          <mxGeometry x="441.46000000000015" y="203.74999999999997" width="77.16" height="37.5" as="geometry" />
        </mxCell>
        <mxCell id="7T7jvsqt7ufRL5xRAqq0-8" value="" style="endArrow=none;html=1;rounded=0;entryX=0.5;entryY=1;entryDx=0;entryDy=0;exitX=0.5;exitY=0;exitDx=0;exitDy=0;" parent="1" source="hz-Ye3yR5dOZ-r6eBfFQ-2" target="7T7jvsqt7ufRL5xRAqq0-7" edge="1">
          <mxGeometry relative="1" as="geometry">
            <mxPoint x="490.96000000000004" y="466" as="sourcePoint" />
            <mxPoint x="490.96000000000004" y="354" as="targetPoint" />
          </mxGeometry>
        </mxCell>
        <mxCell id="7T7jvsqt7ufRL5xRAqq0-10" value="" style="endArrow=none;html=1;rounded=0;entryX=0;entryY=0.25;entryDx=0;entryDy=0;exitX=1;exitY=0.5;exitDx=0;exitDy=0;" parent="1" source="7T7jvsqt7ufRL5xRAqq0-12" target="QzIXMJOMqJ5zSQku9dIi-1" edge="1">
          <mxGeometry relative="1" as="geometry">
            <mxPoint x="309.6" y="913.53" as="sourcePoint" />
            <mxPoint x="306.06000000000006" y="1042.65" as="targetPoint" />
          </mxGeometry>
        </mxCell>
        <mxCell id="7T7jvsqt7ufRL5xRAqq0-12" value="ID Vehículo" style="ellipse;whiteSpace=wrap;html=1;align=center;" parent="1" vertex="1">
          <mxGeometry x="228.9000000000001" y="890.5" width="77.16" height="37.5" as="geometry" />
        </mxCell>
        <mxCell id="7T7jvsqt7ufRL5xRAqq0-13" value="1" style="resizable=0;html=1;align=right;verticalAlign=bottom;" parent="1" connectable="0" vertex="1">
          <mxGeometry x="500.8511222075816" y="748.2266941303938" as="geometry" />
        </mxCell>
        <mxCell id="7T7jvsqt7ufRL5xRAqq0-14" value="N" style="resizable=0;html=1;align=right;verticalAlign=bottom;" parent="1" connectable="0" vertex="1">
          <mxGeometry x="500.85000000000014" y="815.2117241379311" as="geometry" />
        </mxCell>
        <mxCell id="7T7jvsqt7ufRL5xRAqq0-15" value="N" style="resizable=0;html=1;align=right;verticalAlign=bottom;" parent="1" connectable="0" vertex="1">
          <mxGeometry x="500.8528132052112" y="400.09948048103905" as="geometry" />
        </mxCell>
        <mxCell id="7T7jvsqt7ufRL5xRAqq0-16" value="1" style="resizable=0;html=1;align=right;verticalAlign=bottom;" parent="1" connectable="0" vertex="1">
          <mxGeometry x="480.8911222075816" y="664.0166941303937" as="geometry">
            <mxPoint x="20" y="-90" as="offset" />
          </mxGeometry>
        </mxCell>
        <mxCell id="7T7jvsqt7ufRL5xRAqq0-17" value="1" style="resizable=0;html=1;align=right;verticalAlign=bottom;" parent="1" connectable="0" vertex="1">
          <mxGeometry x="481.3511222075816" y="564.9966941303937" as="geometry">
            <mxPoint x="20" y="-90" as="offset" />
          </mxGeometry>
        </mxCell>
        <mxCell id="Y4V3PFolOMbgDIU-VeXU-1" value="Se utilizan" style="shape=rhombus;perimeter=rhombusPerimeter;whiteSpace=wrap;html=1;align=center;" parent="1" vertex="1">
          <mxGeometry x="-254.41" y="455.64" width="77.01" height="49.36" as="geometry" />
        </mxCell>
        <mxCell id="Y4V3PFolOMbgDIU-VeXU-2" value="" style="endArrow=none;html=1;rounded=0;entryX=0.5;entryY=1;entryDx=0;entryDy=0;exitX=0.25;exitY=0;exitDx=0;exitDy=0;" parent="1" source="QzIXMJOMqJ5zSQku9dIi-2" target="Y4V3PFolOMbgDIU-VeXU-1" edge="1">
          <mxGeometry relative="1" as="geometry">
            <mxPoint x="-140.65" y="550.1700000000001" as="sourcePoint" />
            <mxPoint x="-140.65" y="509.17" as="targetPoint" />
          </mxGeometry>
        </mxCell>
        <mxCell id="Y4V3PFolOMbgDIU-VeXU-4" value="Se dividen en" style="shape=rhombus;perimeter=rhombusPerimeter;whiteSpace=wrap;html=1;align=center;" parent="1" vertex="1">
          <mxGeometry x="-47.14" y="455" width="90.9" height="50" as="geometry" />
        </mxCell>
        <mxCell id="Y4V3PFolOMbgDIU-VeXU-5" value="" style="endArrow=none;html=1;rounded=0;entryX=0.5;entryY=1;entryDx=0;entryDy=0;exitX=0.75;exitY=0;exitDx=0;exitDy=0;" parent="1" source="QzIXMJOMqJ5zSQku9dIi-2" target="Y4V3PFolOMbgDIU-VeXU-4" edge="1">
          <mxGeometry relative="1" as="geometry">
            <mxPoint x="24.599999999999994" y="460" as="sourcePoint" />
            <mxPoint x="67.6" y="410" as="targetPoint" />
          </mxGeometry>
        </mxCell>
        <mxCell id="Y4V3PFolOMbgDIU-VeXU-6" value="1" style="resizable=0;html=1;align=right;verticalAlign=bottom;" parent="Y4V3PFolOMbgDIU-VeXU-5" connectable="0" vertex="1">
          <mxGeometry x="1" relative="1" as="geometry">
            <mxPoint x="20" y="13" as="offset" />
          </mxGeometry>
        </mxCell>
        <mxCell id="Y4V3PFolOMbgDIU-VeXU-7" value="1" style="resizable=0;html=1;align=right;verticalAlign=bottom;" parent="1" connectable="0" vertex="1">
          <mxGeometry x="10.743579811346223" y="429.35812284174426" as="geometry" />
        </mxCell>
        <mxCell id="Y4V3PFolOMbgDIU-VeXU-8" value="1" style="resizable=0;html=1;align=right;verticalAlign=bottom;" parent="1" connectable="0" vertex="1">
          <mxGeometry x="-47.13642018865377" y="575.728122841744" as="geometry" />
        </mxCell>
        <mxCell id="Y4V3PFolOMbgDIU-VeXU-9" value="1" style="resizable=0;html=1;align=right;verticalAlign=bottom;" parent="1" connectable="0" vertex="1">
          <mxGeometry x="10.743579811346223" y="454.99812284174425" as="geometry" />
        </mxCell>
        <mxCell id="Y4V3PFolOMbgDIU-VeXU-11" value="1" style="resizable=0;html=1;align=right;verticalAlign=bottom;" parent="1" connectable="0" vertex="1">
          <mxGeometry x="-225.38001009454513" y="518.1035296550323" as="geometry" />
        </mxCell>
        <mxCell id="Y4V3PFolOMbgDIU-VeXU-12" value="1" style="resizable=0;html=1;align=right;verticalAlign=bottom;" parent="1" connectable="0" vertex="1">
          <mxGeometry x="-161.33001009454514" y="574.1235296550324" as="geometry" />
        </mxCell>
        <mxCell id="Y4V3PFolOMbgDIU-VeXU-13" value="ID Circuito" style="ellipse;whiteSpace=wrap;html=1;align=center;" parent="1" vertex="1">
          <mxGeometry x="-132.65" y="490.59999999999997" width="50" height="40" as="geometry" />
        </mxCell>
        <mxCell id="Y4V3PFolOMbgDIU-VeXU-14" value="Año" style="ellipse;whiteSpace=wrap;html=1;align=center;" parent="1" vertex="1">
          <mxGeometry x="-21.690000000000026" y="526.3400000000001" width="40" height="35.98" as="geometry" />
        </mxCell>
        <mxCell id="Y4V3PFolOMbgDIU-VeXU-15" value="" style="endArrow=none;html=1;rounded=0;entryX=0;entryY=1;entryDx=0;entryDy=0;exitX=1;exitY=0;exitDx=0;exitDy=0;" parent="1" source="QzIXMJOMqJ5zSQku9dIi-2" target="Y4V3PFolOMbgDIU-VeXU-14" edge="1">
          <mxGeometry relative="1" as="geometry">
            <mxPoint x="-62.400000000000006" y="585" as="sourcePoint" />
            <mxPoint x="8.599999999999994" y="515" as="targetPoint" />
          </mxGeometry>
        </mxCell>
        <mxCell id="Y4V3PFolOMbgDIU-VeXU-17" value="" style="endArrow=none;html=1;rounded=0;exitX=0.5;exitY=1;exitDx=0;exitDy=0;entryX=0.5;entryY=0;entryDx=0;entryDy=0;" parent="1" source="Y4V3PFolOMbgDIU-VeXU-13" target="QzIXMJOMqJ5zSQku9dIi-2" edge="1">
          <mxGeometry relative="1" as="geometry">
            <mxPoint x="-132.4" y="645" as="sourcePoint" />
            <mxPoint x="-133.4" y="682" as="targetPoint" />
          </mxGeometry>
        </mxCell>
        <mxCell id="Y4V3PFolOMbgDIU-VeXU-18" value="GP Sprint&amp;nbsp;" style="ellipse;whiteSpace=wrap;html=1;align=center;" parent="1" vertex="1">
          <mxGeometry x="-254.41" y="684.14" width="56.26" height="40.35" as="geometry" />
        </mxCell>
        <mxCell id="Y4V3PFolOMbgDIU-VeXU-19" value="" style="endArrow=none;html=1;rounded=0;exitX=0;exitY=1;exitDx=0;exitDy=0;entryX=0.5;entryY=0;entryDx=0;entryDy=0;" parent="1" source="QzIXMJOMqJ5zSQku9dIi-2" target="Y4V3PFolOMbgDIU-VeXU-18" edge="1">
          <mxGeometry relative="1" as="geometry">
            <mxPoint x="-132.4" y="645" as="sourcePoint" />
            <mxPoint x="-129.4" y="700" as="targetPoint" />
          </mxGeometry>
        </mxCell>
        <mxCell id="Y4V3PFolOMbgDIU-VeXU-20" value="Se realiza" style="shape=rhombus;perimeter=rhombusPerimeter;whiteSpace=wrap;html=1;align=center;" parent="1" vertex="1">
          <mxGeometry x="-403.65" y="684.1399999999999" width="77.01" height="49.36" as="geometry" />
        </mxCell>
        <mxCell id="Y4V3PFolOMbgDIU-VeXU-21" value="" style="endArrow=none;html=1;rounded=0;dashed=1;dashPattern=1 2;exitX=0.5;exitY=0;exitDx=0;exitDy=0;entryX=0;entryY=0.75;entryDx=0;entryDy=0;" parent="1" source="Y4V3PFolOMbgDIU-VeXU-20" target="QzIXMJOMqJ5zSQku9dIi-2" edge="1">
          <mxGeometry relative="1" as="geometry">
            <mxPoint x="-562.4" y="951" as="sourcePoint" />
            <mxPoint x="-397.4" y="743" as="targetPoint" />
          </mxGeometry>
        </mxCell>
        <mxCell id="Y4V3PFolOMbgDIU-VeXU-22" value="Se realiza" style="shape=rhombus;perimeter=rhombusPerimeter;whiteSpace=wrap;html=1;align=center;" parent="1" vertex="1">
          <mxGeometry x="-403.65000000000003" y="579.8399999999999" width="77.01" height="49.36" as="geometry" />
        </mxCell>
        <mxCell id="Y4V3PFolOMbgDIU-VeXU-23" value="" style="endArrow=none;html=1;rounded=0;entryX=1;entryY=0.5;entryDx=0;entryDy=0;exitX=0;exitY=0.5;exitDx=0;exitDy=0;" parent="1" source="QzIXMJOMqJ5zSQku9dIi-2" target="Y4V3PFolOMbgDIU-VeXU-22" edge="1">
          <mxGeometry relative="1" as="geometry">
            <mxPoint x="-437.4" y="620" as="sourcePoint" />
            <mxPoint x="-808.4" y="546" as="targetPoint" />
          </mxGeometry>
        </mxCell>
        <mxCell id="Y4V3PFolOMbgDIU-VeXU-24" value="1" style="resizable=0;html=1;align=right;verticalAlign=bottom;" parent="Y4V3PFolOMbgDIU-VeXU-23" connectable="0" vertex="1">
          <mxGeometry x="1" relative="1" as="geometry">
            <mxPoint x="10" y="18" as="offset" />
          </mxGeometry>
        </mxCell>
        <mxCell id="Y4V3PFolOMbgDIU-VeXU-25" value="1" style="resizable=0;html=1;align=right;verticalAlign=bottom;" parent="1" connectable="0" vertex="1">
          <mxGeometry x="-403.65021095189934" y="624.987530080049" as="geometry" />
        </mxCell>
        <mxCell id="Y4V3PFolOMbgDIU-VeXU-26" value="Se realiza" style="shape=rhombus;perimeter=rhombusPerimeter;whiteSpace=wrap;html=1;align=center;" parent="1" vertex="1">
          <mxGeometry x="-403.65000000000003" y="476.97999999999996" width="77.01" height="49.36" as="geometry" />
        </mxCell>
        <mxCell id="Y4V3PFolOMbgDIU-VeXU-27" value="" style="endArrow=none;html=1;rounded=0;entryX=0.5;entryY=1;entryDx=0;entryDy=0;exitX=0;exitY=0.25;exitDx=0;exitDy=0;" parent="1" source="QzIXMJOMqJ5zSQku9dIi-2" target="Y4V3PFolOMbgDIU-VeXU-26" edge="1">
          <mxGeometry relative="1" as="geometry">
            <mxPoint x="-358.4" y="473" as="sourcePoint" />
            <mxPoint x="-517.4" y="320" as="targetPoint" />
          </mxGeometry>
        </mxCell>
        <mxCell id="Y4V3PFolOMbgDIU-VeXU-29" value="1" style="resizable=0;html=1;align=right;verticalAlign=bottom;" parent="1" connectable="0" vertex="1">
          <mxGeometry x="-185.81001009454513" y="582.3235296550323" as="geometry" />
        </mxCell>
        <mxCell id="Y4V3PFolOMbgDIU-VeXU-30" value="1" style="resizable=0;html=1;align=right;verticalAlign=bottom;" parent="1" connectable="0" vertex="1">
          <mxGeometry x="-341.11001009454515" y="540.2735296550322" as="geometry" />
        </mxCell>
        <mxCell id="Y4V3PFolOMbgDIU-VeXU-31" value="1" style="resizable=0;html=1;align=right;verticalAlign=bottom;" parent="1" connectable="0" vertex="1">
          <mxGeometry x="-51.69001009454513" y="689.0635296550323" as="geometry">
            <mxPoint x="-302" y="-209" as="offset" />
          </mxGeometry>
        </mxCell>
        <mxCell id="Y4V3PFolOMbgDIU-VeXU-32" value="GP Sprint&lt;div&gt;&lt;/div&gt;" style="ellipse;whiteSpace=wrap;html=1;align=center;" parent="1" vertex="1">
          <mxGeometry x="-641.57" y="935.97" width="50" height="34.06" as="geometry" />
        </mxCell>
        <mxCell id="Y4V3PFolOMbgDIU-VeXU-33" value="" style="endArrow=none;html=1;rounded=0;entryX=0.5;entryY=0;entryDx=0;entryDy=0;exitX=0.25;exitY=1;exitDx=0;exitDy=0;" parent="1" source="-eVVYZuYslbt9J-JJ0XE-3" target="Y4V3PFolOMbgDIU-VeXU-32" edge="1">
          <mxGeometry relative="1" as="geometry">
            <mxPoint x="-601" y="898.46" as="sourcePoint" />
            <mxPoint x="-665" y="900.46" as="targetPoint" />
          </mxGeometry>
        </mxCell>
        <mxCell id="Y4V3PFolOMbgDIU-VeXU-34" value="ID Carrera" style="ellipse;whiteSpace=wrap;html=1;align=center;" parent="1" vertex="1">
          <mxGeometry x="-754.8147007255301" y="654.0600000000001" width="57.5" height="35" as="geometry" />
        </mxCell>
        <mxCell id="Y4V3PFolOMbgDIU-VeXU-35" value="" style="endArrow=none;html=1;rounded=0;entryX=1;entryY=0;entryDx=0;entryDy=0;exitX=0.25;exitY=1;exitDx=0;exitDy=0;" parent="1" source="5QmATJn6TRXE4mpTiNKF-257" target="Y4V3PFolOMbgDIU-VeXU-34" edge="1">
          <mxGeometry relative="1" as="geometry">
            <mxPoint x="-684.06" y="593.24" as="sourcePoint" />
            <mxPoint x="-758.06" y="582.24" as="targetPoint" />
          </mxGeometry>
        </mxCell>
        <mxCell id="Y4V3PFolOMbgDIU-VeXU-36" value="Posición Salída" style="ellipse;whiteSpace=wrap;html=1;align=center;" parent="1" vertex="1">
          <mxGeometry x="-542.0547007255302" y="619.0200000000002" width="52.5" height="45" as="geometry" />
        </mxCell>
        <mxCell id="Y4V3PFolOMbgDIU-VeXU-38" value="" style="endArrow=none;html=1;rounded=0;entryX=0;entryY=0;entryDx=0;entryDy=0;exitX=1;exitY=0.75;exitDx=0;exitDy=0;" parent="1" source="5QmATJn6TRXE4mpTiNKF-257" target="Y4V3PFolOMbgDIU-VeXU-36" edge="1">
          <mxGeometry relative="1" as="geometry">
            <mxPoint x="-629.0600000000001" y="633.24" as="sourcePoint" />
            <mxPoint x="-603.0600000000001" y="711.24" as="targetPoint" />
          </mxGeometry>
        </mxCell>
        <mxCell id="Y4V3PFolOMbgDIU-VeXU-39" value="Distancia Carrera" style="ellipse;whiteSpace=wrap;html=1;align=center;" parent="1" vertex="1">
          <mxGeometry x="-0.4000000000000057" y="685.3600000000001" width="61.99" height="42.16" as="geometry" />
        </mxCell>
        <mxCell id="Y4V3PFolOMbgDIU-VeXU-40" value="" style="endArrow=none;html=1;rounded=0;entryX=0;entryY=0;entryDx=0;entryDy=0;exitX=1;exitY=1;exitDx=0;exitDy=0;" parent="1" source="QzIXMJOMqJ5zSQku9dIi-2" target="Y4V3PFolOMbgDIU-VeXU-39" edge="1">
          <mxGeometry relative="1" as="geometry">
            <mxPoint x="-62.400000000000006" y="645" as="sourcePoint" />
            <mxPoint x="-37.400000000000006" y="684" as="targetPoint" />
          </mxGeometry>
        </mxCell>
        <mxCell id="5RnJ-H1IA7G9bC_1EflK-1" value="1" style="resizable=0;html=1;align=right;verticalAlign=bottom;" parent="1" connectable="0" vertex="1">
          <mxGeometry x="-225.3800164673489" y="455.63888913184553" as="geometry" />
        </mxCell>
        <mxCell id="5RnJ-H1IA7G9bC_1EflK-2" value="1" style="resizable=0;html=1;align=right;verticalAlign=bottom;" parent="1" connectable="0" vertex="1">
          <mxGeometry x="-204.9000164673489" y="449.5288891318455" as="geometry" />
        </mxCell>
        <mxCell id="5RnJ-H1IA7G9bC_1EflK-3" value="1" style="resizable=0;html=1;align=right;verticalAlign=bottom;" parent="1" connectable="0" vertex="1">
          <mxGeometry x="-558.9002109518993" y="621.667530080049" as="geometry" />
        </mxCell>
        <mxCell id="5RnJ-H1IA7G9bC_1EflK-4" value="1" style="resizable=0;html=1;align=right;verticalAlign=bottom;" parent="1" connectable="0" vertex="1">
          <mxGeometry x="-547.0002109518994" y="429.35753008004906" as="geometry" />
        </mxCell>
        <mxCell id="5RnJ-H1IA7G9bC_1EflK-5" value="1" style="resizable=0;html=1;align=right;verticalAlign=bottom;" parent="1" connectable="0" vertex="1">
          <mxGeometry x="-365.14021095189935" y="684.137530080049" as="geometry" />
        </mxCell>
        <mxCell id="5RnJ-H1IA7G9bC_1EflK-6" value="1" style="resizable=0;html=1;align=right;verticalAlign=bottom;" parent="1" connectable="0" vertex="1">
          <mxGeometry x="-378.99021095189937" y="746.997530080049" as="geometry" />
        </mxCell>
        <mxCell id="5RnJ-H1IA7G9bC_1EflK-7" value="1" style="resizable=0;html=1;align=right;verticalAlign=bottom;" parent="1" connectable="0" vertex="1">
          <mxGeometry x="-501.25021095189936" y="867.647530080049" as="geometry" />
        </mxCell>
        <mxCell id="YopcUDbEfr16_ToL0JRa-2" value="Cantidad Campeonatos Pilotos" style="ellipse;whiteSpace=wrap;html=1;align=center;" parent="1" vertex="1">
          <mxGeometry x="634.09" y="640.8900000000001" width="96.87" height="51.43" as="geometry" />
        </mxCell>
        <mxCell id="YopcUDbEfr16_ToL0JRa-5" value="&lt;div&gt;Edad Piloto&lt;/div&gt;" style="ellipse;whiteSpace=wrap;html=1;align=center;" parent="1" vertex="1">
          <mxGeometry x="678.44" y="978.38" width="71.16" height="38.2" as="geometry" />
        </mxCell>
        <mxCell id="YopcUDbEfr16_ToL0JRa-6" value="" style="endArrow=none;html=1;rounded=0;entryX=0;entryY=0.5;entryDx=0;entryDy=0;exitX=1;exitY=0.75;exitDx=0;exitDy=0;" parent="1" source="QzIXMJOMqJ5zSQku9dIi-1" target="YopcUDbEfr16_ToL0JRa-5" edge="1">
          <mxGeometry relative="1" as="geometry">
            <mxPoint x="552" y="946" as="sourcePoint" />
            <mxPoint x="690" y="959" as="targetPoint" />
          </mxGeometry>
        </mxCell>
        <mxCell id="YopcUDbEfr16_ToL0JRa-7" value="Puntos Piloto" style="ellipse;whiteSpace=wrap;html=1;align=center;" parent="1" vertex="1">
          <mxGeometry x="397.10000000000025" y="820.4099999999999" width="60" height="37.5" as="geometry" />
        </mxCell>
        <mxCell id="YopcUDbEfr16_ToL0JRa-8" style="edgeStyle=orthogonalEdgeStyle;rounded=0;orthogonalLoop=1;jettySize=auto;html=1;exitX=0.5;exitY=1;exitDx=0;exitDy=0;" parent="1" source="YopcUDbEfr16_ToL0JRa-7" target="YopcUDbEfr16_ToL0JRa-7" edge="1">
          <mxGeometry relative="1" as="geometry" />
        </mxCell>
        <mxCell id="YopcUDbEfr16_ToL0JRa-9" value="" style="endArrow=none;html=1;rounded=0;entryX=0.5;entryY=1;entryDx=0;entryDy=0;exitX=0.25;exitY=0;exitDx=0;exitDy=0;" parent="1" source="QzIXMJOMqJ5zSQku9dIi-1" target="YopcUDbEfr16_ToL0JRa-7" edge="1">
          <mxGeometry relative="1" as="geometry">
            <mxPoint x="440" y="900" as="sourcePoint" />
            <mxPoint x="342" y="908" as="targetPoint" />
          </mxGeometry>
        </mxCell>
        <mxCell id="O0nTV2FG2HkwLItUEc8_-1" value="Vuelta Rápida Carrera (T.H)" style="whiteSpace=wrap;html=1;align=center;" vertex="1" parent="1">
          <mxGeometry x="-920.0047007255303" y="584.5200000000002" width="108.75" height="40" as="geometry" />
        </mxCell>
        <mxCell id="O0nTV2FG2HkwLItUEc8_-2" value="ID Carrera" style="ellipse;whiteSpace=wrap;html=1;align=center;" vertex="1" parent="1">
          <mxGeometry x="-894.38" y="654.06" width="57.5" height="35" as="geometry" />
        </mxCell>
        <mxCell id="O0nTV2FG2HkwLItUEc8_-3" value="ID Vehículo" style="ellipse;whiteSpace=wrap;html=1;" vertex="1" parent="1">
          <mxGeometry x="-1027.50470072553" y="550.0000000000003" width="60" height="40" as="geometry" />
        </mxCell>
        <mxCell id="O0nTV2FG2HkwLItUEc8_-4" value="1" style="resizable=0;html=1;align=right;verticalAlign=bottom;" connectable="0" vertex="1" parent="1">
          <mxGeometry x="-390.08021095189935" y="632.8275300800491" as="geometry">
            <mxPoint x="-403" y="-6" as="offset" />
          </mxGeometry>
        </mxCell>
        <mxCell id="O0nTV2FG2HkwLItUEc8_-5" value="1" style="resizable=0;html=1;align=right;verticalAlign=bottom;" connectable="0" vertex="1" parent="1">
          <mxGeometry x="-708.4102109518993" y="624.517530080049" as="geometry" />
        </mxCell>
        <mxCell id="O0nTV2FG2HkwLItUEc8_-6" value="" style="endArrow=none;html=1;rounded=0;entryX=1;entryY=0.5;entryDx=0;entryDy=0;exitX=0;exitY=0.5;exitDx=0;exitDy=0;" edge="1" parent="1" source="5QmATJn6TRXE4mpTiNKF-257" target="O0nTV2FG2HkwLItUEc8_-1">
          <mxGeometry relative="1" as="geometry">
            <mxPoint x="-394" y="615" as="sourcePoint" />
            <mxPoint x="-579" y="615" as="targetPoint" />
          </mxGeometry>
        </mxCell>
        <mxCell id="O0nTV2FG2HkwLItUEc8_-7" value="" style="endArrow=none;html=1;rounded=0;entryX=0.5;entryY=0;entryDx=0;entryDy=0;exitX=0.5;exitY=1;exitDx=0;exitDy=0;" edge="1" parent="1" source="O0nTV2FG2HkwLItUEc8_-1" target="O0nTV2FG2HkwLItUEc8_-2">
          <mxGeometry relative="1" as="geometry">
            <mxPoint x="-384" y="625" as="sourcePoint" />
            <mxPoint x="-569" y="625" as="targetPoint" />
          </mxGeometry>
        </mxCell>
        <mxCell id="O0nTV2FG2HkwLItUEc8_-8" value="" style="endArrow=none;html=1;rounded=0;entryX=1;entryY=1;entryDx=0;entryDy=0;exitX=0;exitY=0.25;exitDx=0;exitDy=0;" edge="1" parent="1" source="O0nTV2FG2HkwLItUEc8_-1" target="O0nTV2FG2HkwLItUEc8_-3">
          <mxGeometry relative="1" as="geometry">
            <mxPoint x="-374" y="635" as="sourcePoint" />
            <mxPoint x="-559" y="635" as="targetPoint" />
          </mxGeometry>
        </mxCell>
        <mxCell id="O0nTV2FG2HkwLItUEc8_-9" value="Punto Vuelta Rápida" style="ellipse;whiteSpace=wrap;html=1;align=center;" vertex="1" parent="1">
          <mxGeometry x="-1030" y="602.02" width="65" height="47.98" as="geometry" />
        </mxCell>
        <mxCell id="O0nTV2FG2HkwLItUEc8_-10" value="" style="endArrow=none;html=1;rounded=0;entryX=1;entryY=0.5;entryDx=0;entryDy=0;exitX=0;exitY=0.75;exitDx=0;exitDy=0;" edge="1" parent="1" source="O0nTV2FG2HkwLItUEc8_-1" target="O0nTV2FG2HkwLItUEc8_-9">
          <mxGeometry relative="1" as="geometry">
            <mxPoint x="-910" y="605" as="sourcePoint" />
            <mxPoint x="-949" y="589" as="targetPoint" />
          </mxGeometry>
        </mxCell>
        <mxCell id="O0nTV2FG2HkwLItUEc8_-11" value="Vuelta Rápida Clasificación" style="ellipse;whiteSpace=wrap;html=1;align=center;" vertex="1" parent="1">
          <mxGeometry x="-798.9" y="371.4" width="101.59" height="54.12" as="geometry" />
        </mxCell>
        <mxCell id="O0nTV2FG2HkwLItUEc8_-12" value="" style="endArrow=none;html=1;rounded=0;entryX=1;entryY=0.5;entryDx=0;entryDy=0;exitX=0;exitY=0.5;exitDx=0;exitDy=0;" edge="1" parent="1" source="-eVVYZuYslbt9J-JJ0XE-2" target="O0nTV2FG2HkwLItUEc8_-11">
          <mxGeometry relative="1" as="geometry">
            <mxPoint x="-628" y="387" as="sourcePoint" />
            <mxPoint x="-674" y="362" as="targetPoint" />
          </mxGeometry>
        </mxCell>
        <mxCell id="O0nTV2FG2HkwLItUEc8_-13" value="Vuelta Rápida Carrera" style="ellipse;whiteSpace=wrap;html=1;align=center;" vertex="1" parent="1">
          <mxGeometry x="-860" y="498.63" width="101.59" height="54.12" as="geometry" />
        </mxCell>
        <mxCell id="O0nTV2FG2HkwLItUEc8_-14" value="" style="endArrow=none;html=1;rounded=0;entryX=0.5;entryY=1;entryDx=0;entryDy=0;exitX=0.75;exitY=0;exitDx=0;exitDy=0;" edge="1" parent="1" source="O0nTV2FG2HkwLItUEc8_-1" target="O0nTV2FG2HkwLItUEc8_-13">
          <mxGeometry relative="1" as="geometry">
            <mxPoint x="-883" y="595" as="sourcePoint" />
            <mxPoint x="-911" y="564" as="targetPoint" />
          </mxGeometry>
        </mxCell>
        <mxCell id="O0nTV2FG2HkwLItUEc8_-16" value="Vuelta Número" style="ellipse;whiteSpace=wrap;html=1;align=center;" vertex="1" parent="1">
          <mxGeometry x="-967.5" y="647.5699999999999" width="65" height="47.98" as="geometry" />
        </mxCell>
        <mxCell id="O0nTV2FG2HkwLItUEc8_-17" value="" style="endArrow=none;html=1;rounded=0;entryX=0.5;entryY=0;entryDx=0;entryDy=0;exitX=0.25;exitY=1;exitDx=0;exitDy=0;" edge="1" parent="1" source="O0nTV2FG2HkwLItUEc8_-1" target="O0nTV2FG2HkwLItUEc8_-16">
          <mxGeometry relative="1" as="geometry">
            <mxPoint x="-910" y="625" as="sourcePoint" />
            <mxPoint x="-955" y="636" as="targetPoint" />
          </mxGeometry>
        </mxCell>
      </root>
    </mxGraphModel>
  </diagram>
</mxfile>
